G04 #@! TF.GenerationSoftware,KiCad,Pcbnew,5.1.5+dfsg1-2build2*
G04 #@! TF.CreationDate,2021-07-30T22:35:06+09:00*
G04 #@! TF.ProjectId,40keyboardpico,34306b65-7962-46f6-9172-647069636f2e,rev?*
G04 #@! TF.SameCoordinates,Original*
G04 #@! TF.FileFunction,Legend,Top*
G04 #@! TF.FilePolarity,Positive*
%FSLAX46Y46*%
G04 Gerber Fmt 4.6, Leading zero omitted, Abs format (unit mm)*
G04 Created by KiCad (PCBNEW 5.1.5+dfsg1-2build2) date 2021-07-30 22:35:06*
%MOMM*%
%LPD*%
G04 APERTURE LIST*
%ADD10C,0.300000*%
%ADD11C,0.120000*%
%ADD12C,0.150000*%
G04 APERTURE END LIST*
D10*
X154746428Y-155888571D02*
X154746428Y-156888571D01*
X154389285Y-155317142D02*
X154032142Y-156388571D01*
X154960714Y-156388571D01*
X155389285Y-156888571D02*
X156175000Y-155888571D01*
X155389285Y-155888571D02*
X156175000Y-156888571D01*
X157389285Y-155888571D02*
X157389285Y-156888571D01*
X157032142Y-155317142D02*
X156675000Y-156388571D01*
X157603571Y-156388571D01*
X158032142Y-156888571D02*
X158817857Y-155888571D01*
X158032142Y-155888571D02*
X158817857Y-156888571D01*
X160032142Y-155888571D02*
X160032142Y-156888571D01*
X159675000Y-155317142D02*
X159317857Y-156388571D01*
X160246428Y-156388571D01*
X160675000Y-156888571D02*
X161460714Y-155888571D01*
X160675000Y-155888571D02*
X161460714Y-156888571D01*
X162675000Y-155888571D02*
X162675000Y-156888571D01*
X162317857Y-155317142D02*
X161960714Y-156388571D01*
X162889285Y-156388571D01*
X165746428Y-155888571D02*
X165746428Y-157388571D01*
X165746428Y-155960000D02*
X165889285Y-155888571D01*
X166175000Y-155888571D01*
X166317857Y-155960000D01*
X166389285Y-156031428D01*
X166460714Y-156174285D01*
X166460714Y-156602857D01*
X166389285Y-156745714D01*
X166317857Y-156817142D01*
X166175000Y-156888571D01*
X165889285Y-156888571D01*
X165746428Y-156817142D01*
X167103571Y-156888571D02*
X167103571Y-155888571D01*
X167103571Y-155388571D02*
X167032142Y-155460000D01*
X167103571Y-155531428D01*
X167175000Y-155460000D01*
X167103571Y-155388571D01*
X167103571Y-155531428D01*
X168460714Y-156817142D02*
X168317857Y-156888571D01*
X168032142Y-156888571D01*
X167889285Y-156817142D01*
X167817857Y-156745714D01*
X167746428Y-156602857D01*
X167746428Y-156174285D01*
X167817857Y-156031428D01*
X167889285Y-155960000D01*
X168032142Y-155888571D01*
X168317857Y-155888571D01*
X168460714Y-155960000D01*
X169317857Y-156888571D02*
X169175000Y-156817142D01*
X169103571Y-156745714D01*
X169032142Y-156602857D01*
X169032142Y-156174285D01*
X169103571Y-156031428D01*
X169175000Y-155960000D01*
X169317857Y-155888571D01*
X169532142Y-155888571D01*
X169675000Y-155960000D01*
X169746428Y-156031428D01*
X169817857Y-156174285D01*
X169817857Y-156602857D01*
X169746428Y-156745714D01*
X169675000Y-156817142D01*
X169532142Y-156888571D01*
X169317857Y-156888571D01*
X119111428Y-156817142D02*
X119325714Y-156888571D01*
X119682857Y-156888571D01*
X119825714Y-156817142D01*
X119897142Y-156745714D01*
X119968571Y-156602857D01*
X119968571Y-156460000D01*
X119897142Y-156317142D01*
X119825714Y-156245714D01*
X119682857Y-156174285D01*
X119397142Y-156102857D01*
X119254285Y-156031428D01*
X119182857Y-155960000D01*
X119111428Y-155817142D01*
X119111428Y-155674285D01*
X119182857Y-155531428D01*
X119254285Y-155460000D01*
X119397142Y-155388571D01*
X119754285Y-155388571D01*
X119968571Y-155460000D01*
X120611428Y-156745714D02*
X120682857Y-156817142D01*
X120611428Y-156888571D01*
X120540000Y-156817142D01*
X120611428Y-156745714D01*
X120611428Y-156888571D01*
X121325714Y-156888571D02*
X121325714Y-155388571D01*
X122040000Y-156888571D02*
X122040000Y-155388571D01*
X122182857Y-156317142D02*
X122611428Y-156888571D01*
X122611428Y-155888571D02*
X122040000Y-156460000D01*
X123825714Y-156817142D02*
X123682857Y-156888571D01*
X123397142Y-156888571D01*
X123254285Y-156817142D01*
X123182857Y-156674285D01*
X123182857Y-156102857D01*
X123254285Y-155960000D01*
X123397142Y-155888571D01*
X123682857Y-155888571D01*
X123825714Y-155960000D01*
X123897142Y-156102857D01*
X123897142Y-156245714D01*
X123182857Y-156388571D01*
X124540000Y-155888571D02*
X124540000Y-157174285D01*
X124468571Y-157317142D01*
X124325714Y-157388571D01*
X124254285Y-157388571D01*
X124540000Y-155388571D02*
X124468571Y-155460000D01*
X124540000Y-155531428D01*
X124611428Y-155460000D01*
X124540000Y-155388571D01*
X124540000Y-155531428D01*
X125254285Y-156888571D02*
X125254285Y-155888571D01*
X125254285Y-155388571D02*
X125182857Y-155460000D01*
X125254285Y-155531428D01*
X125325714Y-155460000D01*
X125254285Y-155388571D01*
X125254285Y-155531428D01*
X125968571Y-156888571D02*
X125968571Y-155888571D01*
X125968571Y-156031428D02*
X126040000Y-155960000D01*
X126182857Y-155888571D01*
X126397142Y-155888571D01*
X126540000Y-155960000D01*
X126611428Y-156102857D01*
X126611428Y-156888571D01*
X126611428Y-156102857D02*
X126682857Y-155960000D01*
X126825714Y-155888571D01*
X127040000Y-155888571D01*
X127182857Y-155960000D01*
X127254285Y-156102857D01*
X127254285Y-156888571D01*
X128611428Y-156888571D02*
X128611428Y-156102857D01*
X128540000Y-155960000D01*
X128397142Y-155888571D01*
X128111428Y-155888571D01*
X127968571Y-155960000D01*
X128611428Y-156817142D02*
X128468571Y-156888571D01*
X128111428Y-156888571D01*
X127968571Y-156817142D01*
X127897142Y-156674285D01*
X127897142Y-156531428D01*
X127968571Y-156388571D01*
X128111428Y-156317142D01*
X128468571Y-156317142D01*
X128611428Y-156245714D01*
X130397142Y-155531428D02*
X130468571Y-155460000D01*
X130611428Y-155388571D01*
X130968571Y-155388571D01*
X131111428Y-155460000D01*
X131182857Y-155531428D01*
X131254285Y-155674285D01*
X131254285Y-155817142D01*
X131182857Y-156031428D01*
X130325714Y-156888571D01*
X131254285Y-156888571D01*
X132182857Y-155388571D02*
X132325714Y-155388571D01*
X132468571Y-155460000D01*
X132540000Y-155531428D01*
X132611428Y-155674285D01*
X132682857Y-155960000D01*
X132682857Y-156317142D01*
X132611428Y-156602857D01*
X132540000Y-156745714D01*
X132468571Y-156817142D01*
X132325714Y-156888571D01*
X132182857Y-156888571D01*
X132040000Y-156817142D01*
X131968571Y-156745714D01*
X131897142Y-156602857D01*
X131825714Y-156317142D01*
X131825714Y-155960000D01*
X131897142Y-155674285D01*
X131968571Y-155531428D01*
X132040000Y-155460000D01*
X132182857Y-155388571D01*
X133254285Y-155531428D02*
X133325714Y-155460000D01*
X133468571Y-155388571D01*
X133825714Y-155388571D01*
X133968571Y-155460000D01*
X134040000Y-155531428D01*
X134111428Y-155674285D01*
X134111428Y-155817142D01*
X134040000Y-156031428D01*
X133182857Y-156888571D01*
X134111428Y-156888571D01*
X135540000Y-156888571D02*
X134682857Y-156888571D01*
X135111428Y-156888571D02*
X135111428Y-155388571D01*
X134968571Y-155602857D01*
X134825714Y-155745714D01*
X134682857Y-155817142D01*
X137254285Y-155317142D02*
X135968571Y-157245714D01*
X138040000Y-155388571D02*
X138182857Y-155388571D01*
X138325714Y-155460000D01*
X138397142Y-155531428D01*
X138468571Y-155674285D01*
X138540000Y-155960000D01*
X138540000Y-156317142D01*
X138468571Y-156602857D01*
X138397142Y-156745714D01*
X138325714Y-156817142D01*
X138182857Y-156888571D01*
X138040000Y-156888571D01*
X137897142Y-156817142D01*
X137825714Y-156745714D01*
X137754285Y-156602857D01*
X137682857Y-156317142D01*
X137682857Y-155960000D01*
X137754285Y-155674285D01*
X137825714Y-155531428D01*
X137897142Y-155460000D01*
X138040000Y-155388571D01*
X139040000Y-155388571D02*
X140040000Y-155388571D01*
X139397142Y-156888571D01*
D11*
X134620000Y-154940000D02*
X134620000Y-140970000D01*
X148590000Y-154940000D02*
X134620000Y-154940000D01*
X148590000Y-140970000D02*
X148590000Y-154940000D01*
X134620000Y-140970000D02*
X148590000Y-140970000D01*
X112970000Y-140910000D02*
X114300000Y-140910000D01*
X112970000Y-142240000D02*
X112970000Y-140910000D01*
X112970000Y-143510000D02*
X115630000Y-143510000D01*
X115630000Y-143510000D02*
X115630000Y-151190000D01*
X112970000Y-143510000D02*
X112970000Y-151190000D01*
X112970000Y-151190000D02*
X115630000Y-151190000D01*
X112970000Y-137855000D02*
X115630000Y-137855000D01*
X112970000Y-130175000D02*
X112970000Y-137855000D01*
X115630000Y-130175000D02*
X115630000Y-137855000D01*
X112970000Y-130175000D02*
X115630000Y-130175000D01*
X112970000Y-128905000D02*
X112970000Y-127575000D01*
X112970000Y-127575000D02*
X114300000Y-127575000D01*
X112970000Y-114240000D02*
X114300000Y-114240000D01*
X112970000Y-115570000D02*
X112970000Y-114240000D01*
X112970000Y-116840000D02*
X115630000Y-116840000D01*
X115630000Y-116840000D02*
X115630000Y-124520000D01*
X112970000Y-116840000D02*
X112970000Y-124520000D01*
X112970000Y-124520000D02*
X115630000Y-124520000D01*
X112970000Y-111185000D02*
X115630000Y-111185000D01*
X112970000Y-103505000D02*
X112970000Y-111185000D01*
X115630000Y-103505000D02*
X115630000Y-111185000D01*
X112970000Y-103505000D02*
X115630000Y-103505000D01*
X112970000Y-102235000D02*
X112970000Y-100905000D01*
X112970000Y-100905000D02*
X114300000Y-100905000D01*
X112970000Y-87570000D02*
X114300000Y-87570000D01*
X112970000Y-88900000D02*
X112970000Y-87570000D01*
X112970000Y-90170000D02*
X115630000Y-90170000D01*
X115630000Y-90170000D02*
X115630000Y-97850000D01*
X112970000Y-90170000D02*
X112970000Y-97850000D01*
X112970000Y-97850000D02*
X115630000Y-97850000D01*
X186630000Y-151190000D02*
X189290000Y-151190000D01*
X186630000Y-143510000D02*
X186630000Y-151190000D01*
X189290000Y-143510000D02*
X189290000Y-151190000D01*
X186630000Y-143510000D02*
X189290000Y-143510000D01*
X186630000Y-142240000D02*
X186630000Y-140910000D01*
X186630000Y-140910000D02*
X187960000Y-140910000D01*
X186630000Y-127575000D02*
X187960000Y-127575000D01*
X186630000Y-128905000D02*
X186630000Y-127575000D01*
X186630000Y-130175000D02*
X189290000Y-130175000D01*
X189290000Y-130175000D02*
X189290000Y-137855000D01*
X186630000Y-130175000D02*
X186630000Y-137855000D01*
X186630000Y-137855000D02*
X189290000Y-137855000D01*
X186630000Y-124520000D02*
X189290000Y-124520000D01*
X186630000Y-116840000D02*
X186630000Y-124520000D01*
X189290000Y-116840000D02*
X189290000Y-124520000D01*
X186630000Y-116840000D02*
X189290000Y-116840000D01*
X186630000Y-115570000D02*
X186630000Y-114240000D01*
X186630000Y-114240000D02*
X187960000Y-114240000D01*
X186630000Y-111185000D02*
X189290000Y-111185000D01*
X186630000Y-103505000D02*
X186630000Y-111185000D01*
X189290000Y-103505000D02*
X189290000Y-111185000D01*
X186630000Y-103505000D02*
X189290000Y-103505000D01*
X186630000Y-102235000D02*
X186630000Y-100905000D01*
X186630000Y-100905000D02*
X187960000Y-100905000D01*
X186630000Y-87570000D02*
X187960000Y-87570000D01*
X186630000Y-88900000D02*
X186630000Y-87570000D01*
X186630000Y-90170000D02*
X189290000Y-90170000D01*
X189290000Y-90170000D02*
X189290000Y-97850000D01*
X186630000Y-90170000D02*
X186630000Y-97850000D01*
X186630000Y-97850000D02*
X189290000Y-97850000D01*
X178521000Y-138780000D02*
X178521000Y-140620000D01*
X178761000Y-138780000D02*
X178761000Y-140620000D01*
X178641000Y-138780000D02*
X178641000Y-140620000D01*
X183795000Y-139700000D02*
X181345000Y-139700000D01*
X175615000Y-139700000D02*
X178065000Y-139700000D01*
X181345000Y-138780000D02*
X178065000Y-138780000D01*
X181345000Y-140620000D02*
X181345000Y-138780000D01*
X178065000Y-140620000D02*
X181345000Y-140620000D01*
X178065000Y-138780000D02*
X178065000Y-140620000D01*
X178521000Y-119730000D02*
X178521000Y-121570000D01*
X178761000Y-119730000D02*
X178761000Y-121570000D01*
X178641000Y-119730000D02*
X178641000Y-121570000D01*
X183795000Y-120650000D02*
X181345000Y-120650000D01*
X175615000Y-120650000D02*
X178065000Y-120650000D01*
X181345000Y-119730000D02*
X178065000Y-119730000D01*
X181345000Y-121570000D02*
X181345000Y-119730000D01*
X178065000Y-121570000D02*
X181345000Y-121570000D01*
X178065000Y-119730000D02*
X178065000Y-121570000D01*
X178521000Y-100680000D02*
X178521000Y-102520000D01*
X178761000Y-100680000D02*
X178761000Y-102520000D01*
X178641000Y-100680000D02*
X178641000Y-102520000D01*
X183795000Y-101600000D02*
X181345000Y-101600000D01*
X175615000Y-101600000D02*
X178065000Y-101600000D01*
X181345000Y-100680000D02*
X178065000Y-100680000D01*
X181345000Y-102520000D02*
X181345000Y-100680000D01*
X178065000Y-102520000D02*
X181345000Y-102520000D01*
X178065000Y-100680000D02*
X178065000Y-102520000D01*
X178065000Y-81630000D02*
X178065000Y-83470000D01*
X178065000Y-83470000D02*
X181345000Y-83470000D01*
X181345000Y-83470000D02*
X181345000Y-81630000D01*
X181345000Y-81630000D02*
X178065000Y-81630000D01*
X175615000Y-82550000D02*
X178065000Y-82550000D01*
X183795000Y-82550000D02*
X181345000Y-82550000D01*
X178641000Y-81630000D02*
X178641000Y-83470000D01*
X178761000Y-81630000D02*
X178761000Y-83470000D01*
X178521000Y-81630000D02*
X178521000Y-83470000D01*
X159015000Y-138780000D02*
X159015000Y-140620000D01*
X159015000Y-140620000D02*
X162295000Y-140620000D01*
X162295000Y-140620000D02*
X162295000Y-138780000D01*
X162295000Y-138780000D02*
X159015000Y-138780000D01*
X156565000Y-139700000D02*
X159015000Y-139700000D01*
X164745000Y-139700000D02*
X162295000Y-139700000D01*
X159591000Y-138780000D02*
X159591000Y-140620000D01*
X159711000Y-138780000D02*
X159711000Y-140620000D01*
X159471000Y-138780000D02*
X159471000Y-140620000D01*
X159015000Y-119730000D02*
X159015000Y-121570000D01*
X159015000Y-121570000D02*
X162295000Y-121570000D01*
X162295000Y-121570000D02*
X162295000Y-119730000D01*
X162295000Y-119730000D02*
X159015000Y-119730000D01*
X156565000Y-120650000D02*
X159015000Y-120650000D01*
X164745000Y-120650000D02*
X162295000Y-120650000D01*
X159591000Y-119730000D02*
X159591000Y-121570000D01*
X159711000Y-119730000D02*
X159711000Y-121570000D01*
X159471000Y-119730000D02*
X159471000Y-121570000D01*
X159015000Y-100680000D02*
X159015000Y-102520000D01*
X159015000Y-102520000D02*
X162295000Y-102520000D01*
X162295000Y-102520000D02*
X162295000Y-100680000D01*
X162295000Y-100680000D02*
X159015000Y-100680000D01*
X156565000Y-101600000D02*
X159015000Y-101600000D01*
X164745000Y-101600000D02*
X162295000Y-101600000D01*
X159591000Y-100680000D02*
X159591000Y-102520000D01*
X159711000Y-100680000D02*
X159711000Y-102520000D01*
X159471000Y-100680000D02*
X159471000Y-102520000D01*
X159471000Y-81630000D02*
X159471000Y-83470000D01*
X159711000Y-81630000D02*
X159711000Y-83470000D01*
X159591000Y-81630000D02*
X159591000Y-83470000D01*
X164745000Y-82550000D02*
X162295000Y-82550000D01*
X156565000Y-82550000D02*
X159015000Y-82550000D01*
X162295000Y-81630000D02*
X159015000Y-81630000D01*
X162295000Y-83470000D02*
X162295000Y-81630000D01*
X159015000Y-83470000D02*
X162295000Y-83470000D01*
X159015000Y-81630000D02*
X159015000Y-83470000D01*
X139786000Y-138780000D02*
X139786000Y-140620000D01*
X140026000Y-138780000D02*
X140026000Y-140620000D01*
X139906000Y-138780000D02*
X139906000Y-140620000D01*
X145060000Y-139700000D02*
X142610000Y-139700000D01*
X136880000Y-139700000D02*
X139330000Y-139700000D01*
X142610000Y-138780000D02*
X139330000Y-138780000D01*
X142610000Y-140620000D02*
X142610000Y-138780000D01*
X139330000Y-140620000D02*
X142610000Y-140620000D01*
X139330000Y-138780000D02*
X139330000Y-140620000D01*
X140421000Y-119730000D02*
X140421000Y-121570000D01*
X140661000Y-119730000D02*
X140661000Y-121570000D01*
X140541000Y-119730000D02*
X140541000Y-121570000D01*
X145695000Y-120650000D02*
X143245000Y-120650000D01*
X137515000Y-120650000D02*
X139965000Y-120650000D01*
X143245000Y-119730000D02*
X139965000Y-119730000D01*
X143245000Y-121570000D02*
X143245000Y-119730000D01*
X139965000Y-121570000D02*
X143245000Y-121570000D01*
X139965000Y-119730000D02*
X139965000Y-121570000D01*
X139965000Y-100680000D02*
X139965000Y-102520000D01*
X139965000Y-102520000D02*
X143245000Y-102520000D01*
X143245000Y-102520000D02*
X143245000Y-100680000D01*
X143245000Y-100680000D02*
X139965000Y-100680000D01*
X137515000Y-101600000D02*
X139965000Y-101600000D01*
X145695000Y-101600000D02*
X143245000Y-101600000D01*
X140541000Y-100680000D02*
X140541000Y-102520000D01*
X140661000Y-100680000D02*
X140661000Y-102520000D01*
X140421000Y-100680000D02*
X140421000Y-102520000D01*
X140421000Y-81630000D02*
X140421000Y-83470000D01*
X140661000Y-81630000D02*
X140661000Y-83470000D01*
X140541000Y-81630000D02*
X140541000Y-83470000D01*
X145695000Y-82550000D02*
X143245000Y-82550000D01*
X137515000Y-82550000D02*
X139965000Y-82550000D01*
X143245000Y-81630000D02*
X139965000Y-81630000D01*
X143245000Y-83470000D02*
X143245000Y-81630000D01*
X139965000Y-83470000D02*
X143245000Y-83470000D01*
X139965000Y-81630000D02*
X139965000Y-83470000D01*
X120915000Y-138780000D02*
X120915000Y-140620000D01*
X120915000Y-140620000D02*
X124195000Y-140620000D01*
X124195000Y-140620000D02*
X124195000Y-138780000D01*
X124195000Y-138780000D02*
X120915000Y-138780000D01*
X118465000Y-139700000D02*
X120915000Y-139700000D01*
X126645000Y-139700000D02*
X124195000Y-139700000D01*
X121491000Y-138780000D02*
X121491000Y-140620000D01*
X121611000Y-138780000D02*
X121611000Y-140620000D01*
X121371000Y-138780000D02*
X121371000Y-140620000D01*
X120915000Y-119730000D02*
X120915000Y-121570000D01*
X120915000Y-121570000D02*
X124195000Y-121570000D01*
X124195000Y-121570000D02*
X124195000Y-119730000D01*
X124195000Y-119730000D02*
X120915000Y-119730000D01*
X118465000Y-120650000D02*
X120915000Y-120650000D01*
X126645000Y-120650000D02*
X124195000Y-120650000D01*
X121491000Y-119730000D02*
X121491000Y-121570000D01*
X121611000Y-119730000D02*
X121611000Y-121570000D01*
X121371000Y-119730000D02*
X121371000Y-121570000D01*
X120915000Y-100680000D02*
X120915000Y-102520000D01*
X120915000Y-102520000D02*
X124195000Y-102520000D01*
X124195000Y-102520000D02*
X124195000Y-100680000D01*
X124195000Y-100680000D02*
X120915000Y-100680000D01*
X118465000Y-101600000D02*
X120915000Y-101600000D01*
X126645000Y-101600000D02*
X124195000Y-101600000D01*
X121491000Y-100680000D02*
X121491000Y-102520000D01*
X121611000Y-100680000D02*
X121611000Y-102520000D01*
X121371000Y-100680000D02*
X121371000Y-102520000D01*
X121371000Y-81630000D02*
X121371000Y-83470000D01*
X121611000Y-81630000D02*
X121611000Y-83470000D01*
X121491000Y-81630000D02*
X121491000Y-83470000D01*
X126645000Y-82550000D02*
X124195000Y-82550000D01*
X118465000Y-82550000D02*
X120915000Y-82550000D01*
X124195000Y-81630000D02*
X120915000Y-81630000D01*
X124195000Y-83470000D02*
X124195000Y-81630000D01*
X120915000Y-83470000D02*
X124195000Y-83470000D01*
X120915000Y-81630000D02*
X120915000Y-83470000D01*
X172720000Y-154940000D02*
X172720000Y-140970000D01*
X186690000Y-154940000D02*
X172720000Y-154940000D01*
X186690000Y-140970000D02*
X186690000Y-154940000D01*
X172720000Y-140970000D02*
X186690000Y-140970000D01*
X172720000Y-135890000D02*
X172720000Y-121920000D01*
X186690000Y-135890000D02*
X172720000Y-135890000D01*
X186690000Y-121920000D02*
X186690000Y-135890000D01*
X172720000Y-121920000D02*
X186690000Y-121920000D01*
X172720000Y-102870000D02*
X186690000Y-102870000D01*
X186690000Y-102870000D02*
X186690000Y-116840000D01*
X186690000Y-116840000D02*
X172720000Y-116840000D01*
X172720000Y-116840000D02*
X172720000Y-102870000D01*
X172720000Y-97790000D02*
X172720000Y-83820000D01*
X186690000Y-97790000D02*
X172720000Y-97790000D01*
X186690000Y-83820000D02*
X186690000Y-97790000D01*
X172720000Y-83820000D02*
X186690000Y-83820000D01*
X153670000Y-140970000D02*
X167640000Y-140970000D01*
X167640000Y-140970000D02*
X167640000Y-154940000D01*
X167640000Y-154940000D02*
X153670000Y-154940000D01*
X153670000Y-154940000D02*
X153670000Y-140970000D01*
X153670000Y-121920000D02*
X167640000Y-121920000D01*
X167640000Y-121920000D02*
X167640000Y-135890000D01*
X167640000Y-135890000D02*
X153670000Y-135890000D01*
X153670000Y-135890000D02*
X153670000Y-121920000D01*
X153670000Y-102870000D02*
X167640000Y-102870000D01*
X167640000Y-102870000D02*
X167640000Y-116840000D01*
X167640000Y-116840000D02*
X153670000Y-116840000D01*
X153670000Y-116840000D02*
X153670000Y-102870000D01*
X153670000Y-97790000D02*
X153670000Y-83820000D01*
X167640000Y-97790000D02*
X153670000Y-97790000D01*
X167640000Y-83820000D02*
X167640000Y-97790000D01*
X153670000Y-83820000D02*
X167640000Y-83820000D01*
X134620000Y-135890000D02*
X134620000Y-121920000D01*
X148590000Y-135890000D02*
X134620000Y-135890000D01*
X148590000Y-121920000D02*
X148590000Y-135890000D01*
X134620000Y-121920000D02*
X148590000Y-121920000D01*
X134620000Y-116840000D02*
X134620000Y-102870000D01*
X148590000Y-116840000D02*
X134620000Y-116840000D01*
X148590000Y-102870000D02*
X148590000Y-116840000D01*
X134620000Y-102870000D02*
X148590000Y-102870000D01*
X134620000Y-83820000D02*
X148590000Y-83820000D01*
X148590000Y-83820000D02*
X148590000Y-97790000D01*
X148590000Y-97790000D02*
X134620000Y-97790000D01*
X134620000Y-97790000D02*
X134620000Y-83820000D01*
X115570000Y-140970000D02*
X129540000Y-140970000D01*
X129540000Y-140970000D02*
X129540000Y-154940000D01*
X129540000Y-154940000D02*
X115570000Y-154940000D01*
X115570000Y-154940000D02*
X115570000Y-140970000D01*
X115570000Y-121920000D02*
X129540000Y-121920000D01*
X129540000Y-121920000D02*
X129540000Y-135890000D01*
X129540000Y-135890000D02*
X115570000Y-135890000D01*
X115570000Y-135890000D02*
X115570000Y-121920000D01*
X115570000Y-116840000D02*
X115570000Y-102870000D01*
X129540000Y-116840000D02*
X115570000Y-116840000D01*
X129540000Y-102870000D02*
X129540000Y-116840000D01*
X115570000Y-102870000D02*
X129540000Y-102870000D01*
X115570000Y-83820000D02*
X129540000Y-83820000D01*
X129540000Y-83820000D02*
X129540000Y-97790000D01*
X129540000Y-97790000D02*
X115570000Y-97790000D01*
X115570000Y-97790000D02*
X115570000Y-83820000D01*
D12*
X140271666Y-140485761D02*
X140414523Y-140533380D01*
X140652619Y-140533380D01*
X140747857Y-140485761D01*
X140795476Y-140438142D01*
X140843095Y-140342904D01*
X140843095Y-140247666D01*
X140795476Y-140152428D01*
X140747857Y-140104809D01*
X140652619Y-140057190D01*
X140462142Y-140009571D01*
X140366904Y-139961952D01*
X140319285Y-139914333D01*
X140271666Y-139819095D01*
X140271666Y-139723857D01*
X140319285Y-139628619D01*
X140366904Y-139581000D01*
X140462142Y-139533380D01*
X140700238Y-139533380D01*
X140843095Y-139581000D01*
X141176428Y-139533380D02*
X141414523Y-140533380D01*
X141605000Y-139819095D01*
X141795476Y-140533380D01*
X142033571Y-139533380D01*
X142462142Y-140533380D02*
X142652619Y-140533380D01*
X142747857Y-140485761D01*
X142795476Y-140438142D01*
X142890714Y-140295285D01*
X142938333Y-140104809D01*
X142938333Y-139723857D01*
X142890714Y-139628619D01*
X142843095Y-139581000D01*
X142747857Y-139533380D01*
X142557380Y-139533380D01*
X142462142Y-139581000D01*
X142414523Y-139628619D01*
X142366904Y-139723857D01*
X142366904Y-139961952D01*
X142414523Y-140057190D01*
X142462142Y-140104809D01*
X142557380Y-140152428D01*
X142747857Y-140152428D01*
X142843095Y-140104809D01*
X142890714Y-140057190D01*
X142938333Y-139961952D01*
X113490476Y-139362380D02*
X113490476Y-140076666D01*
X113442857Y-140219523D01*
X113347619Y-140314761D01*
X113204761Y-140362380D01*
X113109523Y-140362380D01*
X114490476Y-140362380D02*
X113919047Y-140362380D01*
X114204761Y-140362380D02*
X114204761Y-139362380D01*
X114109523Y-139505238D01*
X114014285Y-139600476D01*
X113919047Y-139648095D01*
X115109523Y-139362380D02*
X115204761Y-139362380D01*
X115300000Y-139410000D01*
X115347619Y-139457619D01*
X115395238Y-139552857D01*
X115442857Y-139743333D01*
X115442857Y-139981428D01*
X115395238Y-140171904D01*
X115347619Y-140267142D01*
X115300000Y-140314761D01*
X115204761Y-140362380D01*
X115109523Y-140362380D01*
X115014285Y-140314761D01*
X114966666Y-140267142D01*
X114919047Y-140171904D01*
X114871428Y-139981428D01*
X114871428Y-139743333D01*
X114919047Y-139552857D01*
X114966666Y-139457619D01*
X115014285Y-139410000D01*
X115109523Y-139362380D01*
X113966666Y-126027380D02*
X113966666Y-126741666D01*
X113919047Y-126884523D01*
X113823809Y-126979761D01*
X113680952Y-127027380D01*
X113585714Y-127027380D01*
X114490476Y-127027380D02*
X114680952Y-127027380D01*
X114776190Y-126979761D01*
X114823809Y-126932142D01*
X114919047Y-126789285D01*
X114966666Y-126598809D01*
X114966666Y-126217857D01*
X114919047Y-126122619D01*
X114871428Y-126075000D01*
X114776190Y-126027380D01*
X114585714Y-126027380D01*
X114490476Y-126075000D01*
X114442857Y-126122619D01*
X114395238Y-126217857D01*
X114395238Y-126455952D01*
X114442857Y-126551190D01*
X114490476Y-126598809D01*
X114585714Y-126646428D01*
X114776190Y-126646428D01*
X114871428Y-126598809D01*
X114919047Y-126551190D01*
X114966666Y-126455952D01*
X113966666Y-112692380D02*
X113966666Y-113406666D01*
X113919047Y-113549523D01*
X113823809Y-113644761D01*
X113680952Y-113692380D01*
X113585714Y-113692380D01*
X114585714Y-113120952D02*
X114490476Y-113073333D01*
X114442857Y-113025714D01*
X114395238Y-112930476D01*
X114395238Y-112882857D01*
X114442857Y-112787619D01*
X114490476Y-112740000D01*
X114585714Y-112692380D01*
X114776190Y-112692380D01*
X114871428Y-112740000D01*
X114919047Y-112787619D01*
X114966666Y-112882857D01*
X114966666Y-112930476D01*
X114919047Y-113025714D01*
X114871428Y-113073333D01*
X114776190Y-113120952D01*
X114585714Y-113120952D01*
X114490476Y-113168571D01*
X114442857Y-113216190D01*
X114395238Y-113311428D01*
X114395238Y-113501904D01*
X114442857Y-113597142D01*
X114490476Y-113644761D01*
X114585714Y-113692380D01*
X114776190Y-113692380D01*
X114871428Y-113644761D01*
X114919047Y-113597142D01*
X114966666Y-113501904D01*
X114966666Y-113311428D01*
X114919047Y-113216190D01*
X114871428Y-113168571D01*
X114776190Y-113120952D01*
X113966666Y-99357380D02*
X113966666Y-100071666D01*
X113919047Y-100214523D01*
X113823809Y-100309761D01*
X113680952Y-100357380D01*
X113585714Y-100357380D01*
X114347619Y-99357380D02*
X115014285Y-99357380D01*
X114585714Y-100357380D01*
X113966666Y-86022380D02*
X113966666Y-86736666D01*
X113919047Y-86879523D01*
X113823809Y-86974761D01*
X113680952Y-87022380D01*
X113585714Y-87022380D01*
X114871428Y-86022380D02*
X114680952Y-86022380D01*
X114585714Y-86070000D01*
X114538095Y-86117619D01*
X114442857Y-86260476D01*
X114395238Y-86450952D01*
X114395238Y-86831904D01*
X114442857Y-86927142D01*
X114490476Y-86974761D01*
X114585714Y-87022380D01*
X114776190Y-87022380D01*
X114871428Y-86974761D01*
X114919047Y-86927142D01*
X114966666Y-86831904D01*
X114966666Y-86593809D01*
X114919047Y-86498571D01*
X114871428Y-86450952D01*
X114776190Y-86403333D01*
X114585714Y-86403333D01*
X114490476Y-86450952D01*
X114442857Y-86498571D01*
X114395238Y-86593809D01*
X187626666Y-139362380D02*
X187626666Y-140076666D01*
X187579047Y-140219523D01*
X187483809Y-140314761D01*
X187340952Y-140362380D01*
X187245714Y-140362380D01*
X188579047Y-139362380D02*
X188102857Y-139362380D01*
X188055238Y-139838571D01*
X188102857Y-139790952D01*
X188198095Y-139743333D01*
X188436190Y-139743333D01*
X188531428Y-139790952D01*
X188579047Y-139838571D01*
X188626666Y-139933809D01*
X188626666Y-140171904D01*
X188579047Y-140267142D01*
X188531428Y-140314761D01*
X188436190Y-140362380D01*
X188198095Y-140362380D01*
X188102857Y-140314761D01*
X188055238Y-140267142D01*
X187626666Y-126027380D02*
X187626666Y-126741666D01*
X187579047Y-126884523D01*
X187483809Y-126979761D01*
X187340952Y-127027380D01*
X187245714Y-127027380D01*
X188531428Y-126360714D02*
X188531428Y-127027380D01*
X188293333Y-125979761D02*
X188055238Y-126694047D01*
X188674285Y-126694047D01*
X187626666Y-112692380D02*
X187626666Y-113406666D01*
X187579047Y-113549523D01*
X187483809Y-113644761D01*
X187340952Y-113692380D01*
X187245714Y-113692380D01*
X188007619Y-112692380D02*
X188626666Y-112692380D01*
X188293333Y-113073333D01*
X188436190Y-113073333D01*
X188531428Y-113120952D01*
X188579047Y-113168571D01*
X188626666Y-113263809D01*
X188626666Y-113501904D01*
X188579047Y-113597142D01*
X188531428Y-113644761D01*
X188436190Y-113692380D01*
X188150476Y-113692380D01*
X188055238Y-113644761D01*
X188007619Y-113597142D01*
X187626666Y-99357380D02*
X187626666Y-100071666D01*
X187579047Y-100214523D01*
X187483809Y-100309761D01*
X187340952Y-100357380D01*
X187245714Y-100357380D01*
X188055238Y-99452619D02*
X188102857Y-99405000D01*
X188198095Y-99357380D01*
X188436190Y-99357380D01*
X188531428Y-99405000D01*
X188579047Y-99452619D01*
X188626666Y-99547857D01*
X188626666Y-99643095D01*
X188579047Y-99785952D01*
X188007619Y-100357380D01*
X188626666Y-100357380D01*
X187626666Y-86022380D02*
X187626666Y-86736666D01*
X187579047Y-86879523D01*
X187483809Y-86974761D01*
X187340952Y-87022380D01*
X187245714Y-87022380D01*
X188626666Y-87022380D02*
X188055238Y-87022380D01*
X188340952Y-87022380D02*
X188340952Y-86022380D01*
X188245714Y-86165238D01*
X188150476Y-86260476D01*
X188055238Y-86308095D01*
X178966904Y-138232380D02*
X178966904Y-137232380D01*
X179205000Y-137232380D01*
X179347857Y-137280000D01*
X179443095Y-137375238D01*
X179490714Y-137470476D01*
X179538333Y-137660952D01*
X179538333Y-137803809D01*
X179490714Y-137994285D01*
X179443095Y-138089523D01*
X179347857Y-138184761D01*
X179205000Y-138232380D01*
X178966904Y-138232380D01*
X180490714Y-138232380D02*
X179919285Y-138232380D01*
X180205000Y-138232380D02*
X180205000Y-137232380D01*
X180109761Y-137375238D01*
X180014523Y-137470476D01*
X179919285Y-137518095D01*
X174363095Y-138402380D02*
X174363095Y-137402380D01*
X174934523Y-138402380D02*
X174505952Y-137830952D01*
X174934523Y-137402380D02*
X174363095Y-137973809D01*
X178966904Y-119182380D02*
X178966904Y-118182380D01*
X179205000Y-118182380D01*
X179347857Y-118230000D01*
X179443095Y-118325238D01*
X179490714Y-118420476D01*
X179538333Y-118610952D01*
X179538333Y-118753809D01*
X179490714Y-118944285D01*
X179443095Y-119039523D01*
X179347857Y-119134761D01*
X179205000Y-119182380D01*
X178966904Y-119182380D01*
X179919285Y-118277619D02*
X179966904Y-118230000D01*
X180062142Y-118182380D01*
X180300238Y-118182380D01*
X180395476Y-118230000D01*
X180443095Y-118277619D01*
X180490714Y-118372857D01*
X180490714Y-118468095D01*
X180443095Y-118610952D01*
X179871666Y-119182380D01*
X180490714Y-119182380D01*
X174363095Y-119352380D02*
X174363095Y-118352380D01*
X174934523Y-119352380D02*
X174505952Y-118780952D01*
X174934523Y-118352380D02*
X174363095Y-118923809D01*
X178966904Y-100132380D02*
X178966904Y-99132380D01*
X179205000Y-99132380D01*
X179347857Y-99180000D01*
X179443095Y-99275238D01*
X179490714Y-99370476D01*
X179538333Y-99560952D01*
X179538333Y-99703809D01*
X179490714Y-99894285D01*
X179443095Y-99989523D01*
X179347857Y-100084761D01*
X179205000Y-100132380D01*
X178966904Y-100132380D01*
X179871666Y-99132380D02*
X180490714Y-99132380D01*
X180157380Y-99513333D01*
X180300238Y-99513333D01*
X180395476Y-99560952D01*
X180443095Y-99608571D01*
X180490714Y-99703809D01*
X180490714Y-99941904D01*
X180443095Y-100037142D01*
X180395476Y-100084761D01*
X180300238Y-100132380D01*
X180014523Y-100132380D01*
X179919285Y-100084761D01*
X179871666Y-100037142D01*
X174363095Y-100302380D02*
X174363095Y-99302380D01*
X174934523Y-100302380D02*
X174505952Y-99730952D01*
X174934523Y-99302380D02*
X174363095Y-99873809D01*
X178966904Y-81082380D02*
X178966904Y-80082380D01*
X179205000Y-80082380D01*
X179347857Y-80130000D01*
X179443095Y-80225238D01*
X179490714Y-80320476D01*
X179538333Y-80510952D01*
X179538333Y-80653809D01*
X179490714Y-80844285D01*
X179443095Y-80939523D01*
X179347857Y-81034761D01*
X179205000Y-81082380D01*
X178966904Y-81082380D01*
X180395476Y-80415714D02*
X180395476Y-81082380D01*
X180157380Y-80034761D02*
X179919285Y-80749047D01*
X180538333Y-80749047D01*
X174363095Y-81252380D02*
X174363095Y-80252380D01*
X174934523Y-81252380D02*
X174505952Y-80680952D01*
X174934523Y-80252380D02*
X174363095Y-80823809D01*
X159916904Y-138232380D02*
X159916904Y-137232380D01*
X160155000Y-137232380D01*
X160297857Y-137280000D01*
X160393095Y-137375238D01*
X160440714Y-137470476D01*
X160488333Y-137660952D01*
X160488333Y-137803809D01*
X160440714Y-137994285D01*
X160393095Y-138089523D01*
X160297857Y-138184761D01*
X160155000Y-138232380D01*
X159916904Y-138232380D01*
X161393095Y-137232380D02*
X160916904Y-137232380D01*
X160869285Y-137708571D01*
X160916904Y-137660952D01*
X161012142Y-137613333D01*
X161250238Y-137613333D01*
X161345476Y-137660952D01*
X161393095Y-137708571D01*
X161440714Y-137803809D01*
X161440714Y-138041904D01*
X161393095Y-138137142D01*
X161345476Y-138184761D01*
X161250238Y-138232380D01*
X161012142Y-138232380D01*
X160916904Y-138184761D01*
X160869285Y-138137142D01*
X155313095Y-138402380D02*
X155313095Y-137402380D01*
X155884523Y-138402380D02*
X155455952Y-137830952D01*
X155884523Y-137402380D02*
X155313095Y-137973809D01*
X159916904Y-119182380D02*
X159916904Y-118182380D01*
X160155000Y-118182380D01*
X160297857Y-118230000D01*
X160393095Y-118325238D01*
X160440714Y-118420476D01*
X160488333Y-118610952D01*
X160488333Y-118753809D01*
X160440714Y-118944285D01*
X160393095Y-119039523D01*
X160297857Y-119134761D01*
X160155000Y-119182380D01*
X159916904Y-119182380D01*
X161345476Y-118182380D02*
X161155000Y-118182380D01*
X161059761Y-118230000D01*
X161012142Y-118277619D01*
X160916904Y-118420476D01*
X160869285Y-118610952D01*
X160869285Y-118991904D01*
X160916904Y-119087142D01*
X160964523Y-119134761D01*
X161059761Y-119182380D01*
X161250238Y-119182380D01*
X161345476Y-119134761D01*
X161393095Y-119087142D01*
X161440714Y-118991904D01*
X161440714Y-118753809D01*
X161393095Y-118658571D01*
X161345476Y-118610952D01*
X161250238Y-118563333D01*
X161059761Y-118563333D01*
X160964523Y-118610952D01*
X160916904Y-118658571D01*
X160869285Y-118753809D01*
X155313095Y-119352380D02*
X155313095Y-118352380D01*
X155884523Y-119352380D02*
X155455952Y-118780952D01*
X155884523Y-118352380D02*
X155313095Y-118923809D01*
X159916904Y-100132380D02*
X159916904Y-99132380D01*
X160155000Y-99132380D01*
X160297857Y-99180000D01*
X160393095Y-99275238D01*
X160440714Y-99370476D01*
X160488333Y-99560952D01*
X160488333Y-99703809D01*
X160440714Y-99894285D01*
X160393095Y-99989523D01*
X160297857Y-100084761D01*
X160155000Y-100132380D01*
X159916904Y-100132380D01*
X160821666Y-99132380D02*
X161488333Y-99132380D01*
X161059761Y-100132380D01*
X155313095Y-100302380D02*
X155313095Y-99302380D01*
X155884523Y-100302380D02*
X155455952Y-99730952D01*
X155884523Y-99302380D02*
X155313095Y-99873809D01*
X159916904Y-81082380D02*
X159916904Y-80082380D01*
X160155000Y-80082380D01*
X160297857Y-80130000D01*
X160393095Y-80225238D01*
X160440714Y-80320476D01*
X160488333Y-80510952D01*
X160488333Y-80653809D01*
X160440714Y-80844285D01*
X160393095Y-80939523D01*
X160297857Y-81034761D01*
X160155000Y-81082380D01*
X159916904Y-81082380D01*
X161059761Y-80510952D02*
X160964523Y-80463333D01*
X160916904Y-80415714D01*
X160869285Y-80320476D01*
X160869285Y-80272857D01*
X160916904Y-80177619D01*
X160964523Y-80130000D01*
X161059761Y-80082380D01*
X161250238Y-80082380D01*
X161345476Y-80130000D01*
X161393095Y-80177619D01*
X161440714Y-80272857D01*
X161440714Y-80320476D01*
X161393095Y-80415714D01*
X161345476Y-80463333D01*
X161250238Y-80510952D01*
X161059761Y-80510952D01*
X160964523Y-80558571D01*
X160916904Y-80606190D01*
X160869285Y-80701428D01*
X160869285Y-80891904D01*
X160916904Y-80987142D01*
X160964523Y-81034761D01*
X161059761Y-81082380D01*
X161250238Y-81082380D01*
X161345476Y-81034761D01*
X161393095Y-80987142D01*
X161440714Y-80891904D01*
X161440714Y-80701428D01*
X161393095Y-80606190D01*
X161345476Y-80558571D01*
X161250238Y-80510952D01*
X155313095Y-81252380D02*
X155313095Y-80252380D01*
X155884523Y-81252380D02*
X155455952Y-80680952D01*
X155884523Y-80252380D02*
X155313095Y-80823809D01*
X140231904Y-138232380D02*
X140231904Y-137232380D01*
X140470000Y-137232380D01*
X140612857Y-137280000D01*
X140708095Y-137375238D01*
X140755714Y-137470476D01*
X140803333Y-137660952D01*
X140803333Y-137803809D01*
X140755714Y-137994285D01*
X140708095Y-138089523D01*
X140612857Y-138184761D01*
X140470000Y-138232380D01*
X140231904Y-138232380D01*
X141279523Y-138232380D02*
X141470000Y-138232380D01*
X141565238Y-138184761D01*
X141612857Y-138137142D01*
X141708095Y-137994285D01*
X141755714Y-137803809D01*
X141755714Y-137422857D01*
X141708095Y-137327619D01*
X141660476Y-137280000D01*
X141565238Y-137232380D01*
X141374761Y-137232380D01*
X141279523Y-137280000D01*
X141231904Y-137327619D01*
X141184285Y-137422857D01*
X141184285Y-137660952D01*
X141231904Y-137756190D01*
X141279523Y-137803809D01*
X141374761Y-137851428D01*
X141565238Y-137851428D01*
X141660476Y-137803809D01*
X141708095Y-137756190D01*
X141755714Y-137660952D01*
X135628095Y-138402380D02*
X135628095Y-137402380D01*
X136199523Y-138402380D02*
X135770952Y-137830952D01*
X136199523Y-137402380D02*
X135628095Y-137973809D01*
X140390714Y-119182380D02*
X140390714Y-118182380D01*
X140628809Y-118182380D01*
X140771666Y-118230000D01*
X140866904Y-118325238D01*
X140914523Y-118420476D01*
X140962142Y-118610952D01*
X140962142Y-118753809D01*
X140914523Y-118944285D01*
X140866904Y-119039523D01*
X140771666Y-119134761D01*
X140628809Y-119182380D01*
X140390714Y-119182380D01*
X141914523Y-119182380D02*
X141343095Y-119182380D01*
X141628809Y-119182380D02*
X141628809Y-118182380D01*
X141533571Y-118325238D01*
X141438333Y-118420476D01*
X141343095Y-118468095D01*
X142533571Y-118182380D02*
X142628809Y-118182380D01*
X142724047Y-118230000D01*
X142771666Y-118277619D01*
X142819285Y-118372857D01*
X142866904Y-118563333D01*
X142866904Y-118801428D01*
X142819285Y-118991904D01*
X142771666Y-119087142D01*
X142724047Y-119134761D01*
X142628809Y-119182380D01*
X142533571Y-119182380D01*
X142438333Y-119134761D01*
X142390714Y-119087142D01*
X142343095Y-118991904D01*
X142295476Y-118801428D01*
X142295476Y-118563333D01*
X142343095Y-118372857D01*
X142390714Y-118277619D01*
X142438333Y-118230000D01*
X142533571Y-118182380D01*
X136263095Y-119352380D02*
X136263095Y-118352380D01*
X136834523Y-119352380D02*
X136405952Y-118780952D01*
X136834523Y-118352380D02*
X136263095Y-118923809D01*
X140390714Y-100132380D02*
X140390714Y-99132380D01*
X140628809Y-99132380D01*
X140771666Y-99180000D01*
X140866904Y-99275238D01*
X140914523Y-99370476D01*
X140962142Y-99560952D01*
X140962142Y-99703809D01*
X140914523Y-99894285D01*
X140866904Y-99989523D01*
X140771666Y-100084761D01*
X140628809Y-100132380D01*
X140390714Y-100132380D01*
X141914523Y-100132380D02*
X141343095Y-100132380D01*
X141628809Y-100132380D02*
X141628809Y-99132380D01*
X141533571Y-99275238D01*
X141438333Y-99370476D01*
X141343095Y-99418095D01*
X142866904Y-100132380D02*
X142295476Y-100132380D01*
X142581190Y-100132380D02*
X142581190Y-99132380D01*
X142485952Y-99275238D01*
X142390714Y-99370476D01*
X142295476Y-99418095D01*
X136263095Y-100302380D02*
X136263095Y-99302380D01*
X136834523Y-100302380D02*
X136405952Y-99730952D01*
X136834523Y-99302380D02*
X136263095Y-99873809D01*
X140390714Y-81082380D02*
X140390714Y-80082380D01*
X140628809Y-80082380D01*
X140771666Y-80130000D01*
X140866904Y-80225238D01*
X140914523Y-80320476D01*
X140962142Y-80510952D01*
X140962142Y-80653809D01*
X140914523Y-80844285D01*
X140866904Y-80939523D01*
X140771666Y-81034761D01*
X140628809Y-81082380D01*
X140390714Y-81082380D01*
X141914523Y-81082380D02*
X141343095Y-81082380D01*
X141628809Y-81082380D02*
X141628809Y-80082380D01*
X141533571Y-80225238D01*
X141438333Y-80320476D01*
X141343095Y-80368095D01*
X142295476Y-80177619D02*
X142343095Y-80130000D01*
X142438333Y-80082380D01*
X142676428Y-80082380D01*
X142771666Y-80130000D01*
X142819285Y-80177619D01*
X142866904Y-80272857D01*
X142866904Y-80368095D01*
X142819285Y-80510952D01*
X142247857Y-81082380D01*
X142866904Y-81082380D01*
X136263095Y-81252380D02*
X136263095Y-80252380D01*
X136834523Y-81252380D02*
X136405952Y-80680952D01*
X136834523Y-80252380D02*
X136263095Y-80823809D01*
X121340714Y-138232380D02*
X121340714Y-137232380D01*
X121578809Y-137232380D01*
X121721666Y-137280000D01*
X121816904Y-137375238D01*
X121864523Y-137470476D01*
X121912142Y-137660952D01*
X121912142Y-137803809D01*
X121864523Y-137994285D01*
X121816904Y-138089523D01*
X121721666Y-138184761D01*
X121578809Y-138232380D01*
X121340714Y-138232380D01*
X122864523Y-138232380D02*
X122293095Y-138232380D01*
X122578809Y-138232380D02*
X122578809Y-137232380D01*
X122483571Y-137375238D01*
X122388333Y-137470476D01*
X122293095Y-137518095D01*
X123197857Y-137232380D02*
X123816904Y-137232380D01*
X123483571Y-137613333D01*
X123626428Y-137613333D01*
X123721666Y-137660952D01*
X123769285Y-137708571D01*
X123816904Y-137803809D01*
X123816904Y-138041904D01*
X123769285Y-138137142D01*
X123721666Y-138184761D01*
X123626428Y-138232380D01*
X123340714Y-138232380D01*
X123245476Y-138184761D01*
X123197857Y-138137142D01*
X117213095Y-138402380D02*
X117213095Y-137402380D01*
X117784523Y-138402380D02*
X117355952Y-137830952D01*
X117784523Y-137402380D02*
X117213095Y-137973809D01*
X121340714Y-119182380D02*
X121340714Y-118182380D01*
X121578809Y-118182380D01*
X121721666Y-118230000D01*
X121816904Y-118325238D01*
X121864523Y-118420476D01*
X121912142Y-118610952D01*
X121912142Y-118753809D01*
X121864523Y-118944285D01*
X121816904Y-119039523D01*
X121721666Y-119134761D01*
X121578809Y-119182380D01*
X121340714Y-119182380D01*
X122864523Y-119182380D02*
X122293095Y-119182380D01*
X122578809Y-119182380D02*
X122578809Y-118182380D01*
X122483571Y-118325238D01*
X122388333Y-118420476D01*
X122293095Y-118468095D01*
X123721666Y-118515714D02*
X123721666Y-119182380D01*
X123483571Y-118134761D02*
X123245476Y-118849047D01*
X123864523Y-118849047D01*
X117213095Y-119352380D02*
X117213095Y-118352380D01*
X117784523Y-119352380D02*
X117355952Y-118780952D01*
X117784523Y-118352380D02*
X117213095Y-118923809D01*
X121340714Y-100132380D02*
X121340714Y-99132380D01*
X121578809Y-99132380D01*
X121721666Y-99180000D01*
X121816904Y-99275238D01*
X121864523Y-99370476D01*
X121912142Y-99560952D01*
X121912142Y-99703809D01*
X121864523Y-99894285D01*
X121816904Y-99989523D01*
X121721666Y-100084761D01*
X121578809Y-100132380D01*
X121340714Y-100132380D01*
X122864523Y-100132380D02*
X122293095Y-100132380D01*
X122578809Y-100132380D02*
X122578809Y-99132380D01*
X122483571Y-99275238D01*
X122388333Y-99370476D01*
X122293095Y-99418095D01*
X123769285Y-99132380D02*
X123293095Y-99132380D01*
X123245476Y-99608571D01*
X123293095Y-99560952D01*
X123388333Y-99513333D01*
X123626428Y-99513333D01*
X123721666Y-99560952D01*
X123769285Y-99608571D01*
X123816904Y-99703809D01*
X123816904Y-99941904D01*
X123769285Y-100037142D01*
X123721666Y-100084761D01*
X123626428Y-100132380D01*
X123388333Y-100132380D01*
X123293095Y-100084761D01*
X123245476Y-100037142D01*
X117213095Y-100302380D02*
X117213095Y-99302380D01*
X117784523Y-100302380D02*
X117355952Y-99730952D01*
X117784523Y-99302380D02*
X117213095Y-99873809D01*
X121340714Y-81082380D02*
X121340714Y-80082380D01*
X121578809Y-80082380D01*
X121721666Y-80130000D01*
X121816904Y-80225238D01*
X121864523Y-80320476D01*
X121912142Y-80510952D01*
X121912142Y-80653809D01*
X121864523Y-80844285D01*
X121816904Y-80939523D01*
X121721666Y-81034761D01*
X121578809Y-81082380D01*
X121340714Y-81082380D01*
X122864523Y-81082380D02*
X122293095Y-81082380D01*
X122578809Y-81082380D02*
X122578809Y-80082380D01*
X122483571Y-80225238D01*
X122388333Y-80320476D01*
X122293095Y-80368095D01*
X123721666Y-80082380D02*
X123531190Y-80082380D01*
X123435952Y-80130000D01*
X123388333Y-80177619D01*
X123293095Y-80320476D01*
X123245476Y-80510952D01*
X123245476Y-80891904D01*
X123293095Y-80987142D01*
X123340714Y-81034761D01*
X123435952Y-81082380D01*
X123626428Y-81082380D01*
X123721666Y-81034761D01*
X123769285Y-80987142D01*
X123816904Y-80891904D01*
X123816904Y-80653809D01*
X123769285Y-80558571D01*
X123721666Y-80510952D01*
X123626428Y-80463333D01*
X123435952Y-80463333D01*
X123340714Y-80510952D01*
X123293095Y-80558571D01*
X123245476Y-80653809D01*
X117213095Y-81252380D02*
X117213095Y-80252380D01*
X117784523Y-81252380D02*
X117355952Y-80680952D01*
X117784523Y-80252380D02*
X117213095Y-80823809D01*
X178371666Y-140485761D02*
X178514523Y-140533380D01*
X178752619Y-140533380D01*
X178847857Y-140485761D01*
X178895476Y-140438142D01*
X178943095Y-140342904D01*
X178943095Y-140247666D01*
X178895476Y-140152428D01*
X178847857Y-140104809D01*
X178752619Y-140057190D01*
X178562142Y-140009571D01*
X178466904Y-139961952D01*
X178419285Y-139914333D01*
X178371666Y-139819095D01*
X178371666Y-139723857D01*
X178419285Y-139628619D01*
X178466904Y-139581000D01*
X178562142Y-139533380D01*
X178800238Y-139533380D01*
X178943095Y-139581000D01*
X179276428Y-139533380D02*
X179514523Y-140533380D01*
X179705000Y-139819095D01*
X179895476Y-140533380D01*
X180133571Y-139533380D01*
X181038333Y-140533380D02*
X180466904Y-140533380D01*
X180752619Y-140533380D02*
X180752619Y-139533380D01*
X180657380Y-139676238D01*
X180562142Y-139771476D01*
X180466904Y-139819095D01*
X178371666Y-121435761D02*
X178514523Y-121483380D01*
X178752619Y-121483380D01*
X178847857Y-121435761D01*
X178895476Y-121388142D01*
X178943095Y-121292904D01*
X178943095Y-121197666D01*
X178895476Y-121102428D01*
X178847857Y-121054809D01*
X178752619Y-121007190D01*
X178562142Y-120959571D01*
X178466904Y-120911952D01*
X178419285Y-120864333D01*
X178371666Y-120769095D01*
X178371666Y-120673857D01*
X178419285Y-120578619D01*
X178466904Y-120531000D01*
X178562142Y-120483380D01*
X178800238Y-120483380D01*
X178943095Y-120531000D01*
X179276428Y-120483380D02*
X179514523Y-121483380D01*
X179705000Y-120769095D01*
X179895476Y-121483380D01*
X180133571Y-120483380D01*
X180466904Y-120578619D02*
X180514523Y-120531000D01*
X180609761Y-120483380D01*
X180847857Y-120483380D01*
X180943095Y-120531000D01*
X180990714Y-120578619D01*
X181038333Y-120673857D01*
X181038333Y-120769095D01*
X180990714Y-120911952D01*
X180419285Y-121483380D01*
X181038333Y-121483380D01*
X178371666Y-102385761D02*
X178514523Y-102433380D01*
X178752619Y-102433380D01*
X178847857Y-102385761D01*
X178895476Y-102338142D01*
X178943095Y-102242904D01*
X178943095Y-102147666D01*
X178895476Y-102052428D01*
X178847857Y-102004809D01*
X178752619Y-101957190D01*
X178562142Y-101909571D01*
X178466904Y-101861952D01*
X178419285Y-101814333D01*
X178371666Y-101719095D01*
X178371666Y-101623857D01*
X178419285Y-101528619D01*
X178466904Y-101481000D01*
X178562142Y-101433380D01*
X178800238Y-101433380D01*
X178943095Y-101481000D01*
X179276428Y-101433380D02*
X179514523Y-102433380D01*
X179705000Y-101719095D01*
X179895476Y-102433380D01*
X180133571Y-101433380D01*
X180419285Y-101433380D02*
X181038333Y-101433380D01*
X180705000Y-101814333D01*
X180847857Y-101814333D01*
X180943095Y-101861952D01*
X180990714Y-101909571D01*
X181038333Y-102004809D01*
X181038333Y-102242904D01*
X180990714Y-102338142D01*
X180943095Y-102385761D01*
X180847857Y-102433380D01*
X180562142Y-102433380D01*
X180466904Y-102385761D01*
X180419285Y-102338142D01*
X178371666Y-83335761D02*
X178514523Y-83383380D01*
X178752619Y-83383380D01*
X178847857Y-83335761D01*
X178895476Y-83288142D01*
X178943095Y-83192904D01*
X178943095Y-83097666D01*
X178895476Y-83002428D01*
X178847857Y-82954809D01*
X178752619Y-82907190D01*
X178562142Y-82859571D01*
X178466904Y-82811952D01*
X178419285Y-82764333D01*
X178371666Y-82669095D01*
X178371666Y-82573857D01*
X178419285Y-82478619D01*
X178466904Y-82431000D01*
X178562142Y-82383380D01*
X178800238Y-82383380D01*
X178943095Y-82431000D01*
X179276428Y-82383380D02*
X179514523Y-83383380D01*
X179705000Y-82669095D01*
X179895476Y-83383380D01*
X180133571Y-82383380D01*
X180943095Y-82716714D02*
X180943095Y-83383380D01*
X180705000Y-82335761D02*
X180466904Y-83050047D01*
X181085952Y-83050047D01*
X159321666Y-140485761D02*
X159464523Y-140533380D01*
X159702619Y-140533380D01*
X159797857Y-140485761D01*
X159845476Y-140438142D01*
X159893095Y-140342904D01*
X159893095Y-140247666D01*
X159845476Y-140152428D01*
X159797857Y-140104809D01*
X159702619Y-140057190D01*
X159512142Y-140009571D01*
X159416904Y-139961952D01*
X159369285Y-139914333D01*
X159321666Y-139819095D01*
X159321666Y-139723857D01*
X159369285Y-139628619D01*
X159416904Y-139581000D01*
X159512142Y-139533380D01*
X159750238Y-139533380D01*
X159893095Y-139581000D01*
X160226428Y-139533380D02*
X160464523Y-140533380D01*
X160655000Y-139819095D01*
X160845476Y-140533380D01*
X161083571Y-139533380D01*
X161940714Y-139533380D02*
X161464523Y-139533380D01*
X161416904Y-140009571D01*
X161464523Y-139961952D01*
X161559761Y-139914333D01*
X161797857Y-139914333D01*
X161893095Y-139961952D01*
X161940714Y-140009571D01*
X161988333Y-140104809D01*
X161988333Y-140342904D01*
X161940714Y-140438142D01*
X161893095Y-140485761D01*
X161797857Y-140533380D01*
X161559761Y-140533380D01*
X161464523Y-140485761D01*
X161416904Y-140438142D01*
X159321666Y-121435761D02*
X159464523Y-121483380D01*
X159702619Y-121483380D01*
X159797857Y-121435761D01*
X159845476Y-121388142D01*
X159893095Y-121292904D01*
X159893095Y-121197666D01*
X159845476Y-121102428D01*
X159797857Y-121054809D01*
X159702619Y-121007190D01*
X159512142Y-120959571D01*
X159416904Y-120911952D01*
X159369285Y-120864333D01*
X159321666Y-120769095D01*
X159321666Y-120673857D01*
X159369285Y-120578619D01*
X159416904Y-120531000D01*
X159512142Y-120483380D01*
X159750238Y-120483380D01*
X159893095Y-120531000D01*
X160226428Y-120483380D02*
X160464523Y-121483380D01*
X160655000Y-120769095D01*
X160845476Y-121483380D01*
X161083571Y-120483380D01*
X161893095Y-120483380D02*
X161702619Y-120483380D01*
X161607380Y-120531000D01*
X161559761Y-120578619D01*
X161464523Y-120721476D01*
X161416904Y-120911952D01*
X161416904Y-121292904D01*
X161464523Y-121388142D01*
X161512142Y-121435761D01*
X161607380Y-121483380D01*
X161797857Y-121483380D01*
X161893095Y-121435761D01*
X161940714Y-121388142D01*
X161988333Y-121292904D01*
X161988333Y-121054809D01*
X161940714Y-120959571D01*
X161893095Y-120911952D01*
X161797857Y-120864333D01*
X161607380Y-120864333D01*
X161512142Y-120911952D01*
X161464523Y-120959571D01*
X161416904Y-121054809D01*
X159321666Y-102385761D02*
X159464523Y-102433380D01*
X159702619Y-102433380D01*
X159797857Y-102385761D01*
X159845476Y-102338142D01*
X159893095Y-102242904D01*
X159893095Y-102147666D01*
X159845476Y-102052428D01*
X159797857Y-102004809D01*
X159702619Y-101957190D01*
X159512142Y-101909571D01*
X159416904Y-101861952D01*
X159369285Y-101814333D01*
X159321666Y-101719095D01*
X159321666Y-101623857D01*
X159369285Y-101528619D01*
X159416904Y-101481000D01*
X159512142Y-101433380D01*
X159750238Y-101433380D01*
X159893095Y-101481000D01*
X160226428Y-101433380D02*
X160464523Y-102433380D01*
X160655000Y-101719095D01*
X160845476Y-102433380D01*
X161083571Y-101433380D01*
X161369285Y-101433380D02*
X162035952Y-101433380D01*
X161607380Y-102433380D01*
X159321666Y-83335761D02*
X159464523Y-83383380D01*
X159702619Y-83383380D01*
X159797857Y-83335761D01*
X159845476Y-83288142D01*
X159893095Y-83192904D01*
X159893095Y-83097666D01*
X159845476Y-83002428D01*
X159797857Y-82954809D01*
X159702619Y-82907190D01*
X159512142Y-82859571D01*
X159416904Y-82811952D01*
X159369285Y-82764333D01*
X159321666Y-82669095D01*
X159321666Y-82573857D01*
X159369285Y-82478619D01*
X159416904Y-82431000D01*
X159512142Y-82383380D01*
X159750238Y-82383380D01*
X159893095Y-82431000D01*
X160226428Y-82383380D02*
X160464523Y-83383380D01*
X160655000Y-82669095D01*
X160845476Y-83383380D01*
X161083571Y-82383380D01*
X161607380Y-82811952D02*
X161512142Y-82764333D01*
X161464523Y-82716714D01*
X161416904Y-82621476D01*
X161416904Y-82573857D01*
X161464523Y-82478619D01*
X161512142Y-82431000D01*
X161607380Y-82383380D01*
X161797857Y-82383380D01*
X161893095Y-82431000D01*
X161940714Y-82478619D01*
X161988333Y-82573857D01*
X161988333Y-82621476D01*
X161940714Y-82716714D01*
X161893095Y-82764333D01*
X161797857Y-82811952D01*
X161607380Y-82811952D01*
X161512142Y-82859571D01*
X161464523Y-82907190D01*
X161416904Y-83002428D01*
X161416904Y-83192904D01*
X161464523Y-83288142D01*
X161512142Y-83335761D01*
X161607380Y-83383380D01*
X161797857Y-83383380D01*
X161893095Y-83335761D01*
X161940714Y-83288142D01*
X161988333Y-83192904D01*
X161988333Y-83002428D01*
X161940714Y-82907190D01*
X161893095Y-82859571D01*
X161797857Y-82811952D01*
X139795476Y-121435761D02*
X139938333Y-121483380D01*
X140176428Y-121483380D01*
X140271666Y-121435761D01*
X140319285Y-121388142D01*
X140366904Y-121292904D01*
X140366904Y-121197666D01*
X140319285Y-121102428D01*
X140271666Y-121054809D01*
X140176428Y-121007190D01*
X139985952Y-120959571D01*
X139890714Y-120911952D01*
X139843095Y-120864333D01*
X139795476Y-120769095D01*
X139795476Y-120673857D01*
X139843095Y-120578619D01*
X139890714Y-120531000D01*
X139985952Y-120483380D01*
X140224047Y-120483380D01*
X140366904Y-120531000D01*
X140700238Y-120483380D02*
X140938333Y-121483380D01*
X141128809Y-120769095D01*
X141319285Y-121483380D01*
X141557380Y-120483380D01*
X142462142Y-121483380D02*
X141890714Y-121483380D01*
X142176428Y-121483380D02*
X142176428Y-120483380D01*
X142081190Y-120626238D01*
X141985952Y-120721476D01*
X141890714Y-120769095D01*
X143081190Y-120483380D02*
X143176428Y-120483380D01*
X143271666Y-120531000D01*
X143319285Y-120578619D01*
X143366904Y-120673857D01*
X143414523Y-120864333D01*
X143414523Y-121102428D01*
X143366904Y-121292904D01*
X143319285Y-121388142D01*
X143271666Y-121435761D01*
X143176428Y-121483380D01*
X143081190Y-121483380D01*
X142985952Y-121435761D01*
X142938333Y-121388142D01*
X142890714Y-121292904D01*
X142843095Y-121102428D01*
X142843095Y-120864333D01*
X142890714Y-120673857D01*
X142938333Y-120578619D01*
X142985952Y-120531000D01*
X143081190Y-120483380D01*
X139795476Y-102385761D02*
X139938333Y-102433380D01*
X140176428Y-102433380D01*
X140271666Y-102385761D01*
X140319285Y-102338142D01*
X140366904Y-102242904D01*
X140366904Y-102147666D01*
X140319285Y-102052428D01*
X140271666Y-102004809D01*
X140176428Y-101957190D01*
X139985952Y-101909571D01*
X139890714Y-101861952D01*
X139843095Y-101814333D01*
X139795476Y-101719095D01*
X139795476Y-101623857D01*
X139843095Y-101528619D01*
X139890714Y-101481000D01*
X139985952Y-101433380D01*
X140224047Y-101433380D01*
X140366904Y-101481000D01*
X140700238Y-101433380D02*
X140938333Y-102433380D01*
X141128809Y-101719095D01*
X141319285Y-102433380D01*
X141557380Y-101433380D01*
X142462142Y-102433380D02*
X141890714Y-102433380D01*
X142176428Y-102433380D02*
X142176428Y-101433380D01*
X142081190Y-101576238D01*
X141985952Y-101671476D01*
X141890714Y-101719095D01*
X143414523Y-102433380D02*
X142843095Y-102433380D01*
X143128809Y-102433380D02*
X143128809Y-101433380D01*
X143033571Y-101576238D01*
X142938333Y-101671476D01*
X142843095Y-101719095D01*
X139795476Y-83335761D02*
X139938333Y-83383380D01*
X140176428Y-83383380D01*
X140271666Y-83335761D01*
X140319285Y-83288142D01*
X140366904Y-83192904D01*
X140366904Y-83097666D01*
X140319285Y-83002428D01*
X140271666Y-82954809D01*
X140176428Y-82907190D01*
X139985952Y-82859571D01*
X139890714Y-82811952D01*
X139843095Y-82764333D01*
X139795476Y-82669095D01*
X139795476Y-82573857D01*
X139843095Y-82478619D01*
X139890714Y-82431000D01*
X139985952Y-82383380D01*
X140224047Y-82383380D01*
X140366904Y-82431000D01*
X140700238Y-82383380D02*
X140938333Y-83383380D01*
X141128809Y-82669095D01*
X141319285Y-83383380D01*
X141557380Y-82383380D01*
X142462142Y-83383380D02*
X141890714Y-83383380D01*
X142176428Y-83383380D02*
X142176428Y-82383380D01*
X142081190Y-82526238D01*
X141985952Y-82621476D01*
X141890714Y-82669095D01*
X142843095Y-82478619D02*
X142890714Y-82431000D01*
X142985952Y-82383380D01*
X143224047Y-82383380D01*
X143319285Y-82431000D01*
X143366904Y-82478619D01*
X143414523Y-82573857D01*
X143414523Y-82669095D01*
X143366904Y-82811952D01*
X142795476Y-83383380D01*
X143414523Y-83383380D01*
X120745476Y-140485761D02*
X120888333Y-140533380D01*
X121126428Y-140533380D01*
X121221666Y-140485761D01*
X121269285Y-140438142D01*
X121316904Y-140342904D01*
X121316904Y-140247666D01*
X121269285Y-140152428D01*
X121221666Y-140104809D01*
X121126428Y-140057190D01*
X120935952Y-140009571D01*
X120840714Y-139961952D01*
X120793095Y-139914333D01*
X120745476Y-139819095D01*
X120745476Y-139723857D01*
X120793095Y-139628619D01*
X120840714Y-139581000D01*
X120935952Y-139533380D01*
X121174047Y-139533380D01*
X121316904Y-139581000D01*
X121650238Y-139533380D02*
X121888333Y-140533380D01*
X122078809Y-139819095D01*
X122269285Y-140533380D01*
X122507380Y-139533380D01*
X123412142Y-140533380D02*
X122840714Y-140533380D01*
X123126428Y-140533380D02*
X123126428Y-139533380D01*
X123031190Y-139676238D01*
X122935952Y-139771476D01*
X122840714Y-139819095D01*
X123745476Y-139533380D02*
X124364523Y-139533380D01*
X124031190Y-139914333D01*
X124174047Y-139914333D01*
X124269285Y-139961952D01*
X124316904Y-140009571D01*
X124364523Y-140104809D01*
X124364523Y-140342904D01*
X124316904Y-140438142D01*
X124269285Y-140485761D01*
X124174047Y-140533380D01*
X123888333Y-140533380D01*
X123793095Y-140485761D01*
X123745476Y-140438142D01*
X120745476Y-121435761D02*
X120888333Y-121483380D01*
X121126428Y-121483380D01*
X121221666Y-121435761D01*
X121269285Y-121388142D01*
X121316904Y-121292904D01*
X121316904Y-121197666D01*
X121269285Y-121102428D01*
X121221666Y-121054809D01*
X121126428Y-121007190D01*
X120935952Y-120959571D01*
X120840714Y-120911952D01*
X120793095Y-120864333D01*
X120745476Y-120769095D01*
X120745476Y-120673857D01*
X120793095Y-120578619D01*
X120840714Y-120531000D01*
X120935952Y-120483380D01*
X121174047Y-120483380D01*
X121316904Y-120531000D01*
X121650238Y-120483380D02*
X121888333Y-121483380D01*
X122078809Y-120769095D01*
X122269285Y-121483380D01*
X122507380Y-120483380D01*
X123412142Y-121483380D02*
X122840714Y-121483380D01*
X123126428Y-121483380D02*
X123126428Y-120483380D01*
X123031190Y-120626238D01*
X122935952Y-120721476D01*
X122840714Y-120769095D01*
X124269285Y-120816714D02*
X124269285Y-121483380D01*
X124031190Y-120435761D02*
X123793095Y-121150047D01*
X124412142Y-121150047D01*
X120745476Y-102385761D02*
X120888333Y-102433380D01*
X121126428Y-102433380D01*
X121221666Y-102385761D01*
X121269285Y-102338142D01*
X121316904Y-102242904D01*
X121316904Y-102147666D01*
X121269285Y-102052428D01*
X121221666Y-102004809D01*
X121126428Y-101957190D01*
X120935952Y-101909571D01*
X120840714Y-101861952D01*
X120793095Y-101814333D01*
X120745476Y-101719095D01*
X120745476Y-101623857D01*
X120793095Y-101528619D01*
X120840714Y-101481000D01*
X120935952Y-101433380D01*
X121174047Y-101433380D01*
X121316904Y-101481000D01*
X121650238Y-101433380D02*
X121888333Y-102433380D01*
X122078809Y-101719095D01*
X122269285Y-102433380D01*
X122507380Y-101433380D01*
X123412142Y-102433380D02*
X122840714Y-102433380D01*
X123126428Y-102433380D02*
X123126428Y-101433380D01*
X123031190Y-101576238D01*
X122935952Y-101671476D01*
X122840714Y-101719095D01*
X124316904Y-101433380D02*
X123840714Y-101433380D01*
X123793095Y-101909571D01*
X123840714Y-101861952D01*
X123935952Y-101814333D01*
X124174047Y-101814333D01*
X124269285Y-101861952D01*
X124316904Y-101909571D01*
X124364523Y-102004809D01*
X124364523Y-102242904D01*
X124316904Y-102338142D01*
X124269285Y-102385761D01*
X124174047Y-102433380D01*
X123935952Y-102433380D01*
X123840714Y-102385761D01*
X123793095Y-102338142D01*
X120745476Y-83335761D02*
X120888333Y-83383380D01*
X121126428Y-83383380D01*
X121221666Y-83335761D01*
X121269285Y-83288142D01*
X121316904Y-83192904D01*
X121316904Y-83097666D01*
X121269285Y-83002428D01*
X121221666Y-82954809D01*
X121126428Y-82907190D01*
X120935952Y-82859571D01*
X120840714Y-82811952D01*
X120793095Y-82764333D01*
X120745476Y-82669095D01*
X120745476Y-82573857D01*
X120793095Y-82478619D01*
X120840714Y-82431000D01*
X120935952Y-82383380D01*
X121174047Y-82383380D01*
X121316904Y-82431000D01*
X121650238Y-82383380D02*
X121888333Y-83383380D01*
X122078809Y-82669095D01*
X122269285Y-83383380D01*
X122507380Y-82383380D01*
X123412142Y-83383380D02*
X122840714Y-83383380D01*
X123126428Y-83383380D02*
X123126428Y-82383380D01*
X123031190Y-82526238D01*
X122935952Y-82621476D01*
X122840714Y-82669095D01*
X124269285Y-82383380D02*
X124078809Y-82383380D01*
X123983571Y-82431000D01*
X123935952Y-82478619D01*
X123840714Y-82621476D01*
X123793095Y-82811952D01*
X123793095Y-83192904D01*
X123840714Y-83288142D01*
X123888333Y-83335761D01*
X123983571Y-83383380D01*
X124174047Y-83383380D01*
X124269285Y-83335761D01*
X124316904Y-83288142D01*
X124364523Y-83192904D01*
X124364523Y-82954809D01*
X124316904Y-82859571D01*
X124269285Y-82811952D01*
X124174047Y-82764333D01*
X123983571Y-82764333D01*
X123888333Y-82811952D01*
X123840714Y-82859571D01*
X123793095Y-82954809D01*
M02*
