G04 #@! TF.GenerationSoftware,KiCad,Pcbnew,5.1.5+dfsg1-2build2*
G04 #@! TF.CreationDate,2021-07-30T22:35:06+09:00*
G04 #@! TF.ProjectId,40keyboardpico,34306b65-7962-46f6-9172-647069636f2e,rev?*
G04 #@! TF.SameCoordinates,Original*
G04 #@! TF.FileFunction,Legend,Bot*
G04 #@! TF.FilePolarity,Positive*
%FSLAX46Y46*%
G04 Gerber Fmt 4.6, Leading zero omitted, Abs format (unit mm)*
G04 Created by KiCad (PCBNEW 5.1.5+dfsg1-2build2) date 2021-07-30 22:35:06*
%MOMM*%
%LPD*%
G04 APERTURE LIST*
%ADD10C,0.120000*%
%ADD11C,0.150000*%
G04 APERTURE END LIST*
D10*
X140505000Y-132180000D02*
X140105000Y-132180000D01*
X143105000Y-132180000D02*
X142705000Y-132180000D01*
X131105000Y-132180000D02*
X137905000Y-132180000D01*
X131105000Y-121780000D02*
X131105000Y-122180000D01*
X131105000Y-114080000D02*
X131105000Y-114480000D01*
X131105000Y-88680000D02*
X131105000Y-89080000D01*
X131105000Y-81180000D02*
X131105000Y-81480000D01*
X131105000Y-103980000D02*
X131105000Y-104380000D01*
X131105000Y-119180000D02*
X131105000Y-119580000D01*
X131105000Y-98880000D02*
X131105000Y-99280000D01*
X131105000Y-93780000D02*
X131105000Y-94180000D01*
X131105000Y-106480000D02*
X131105000Y-106880000D01*
X131105000Y-111580000D02*
X131105000Y-111980000D01*
X131105000Y-126780000D02*
X131105000Y-127180000D01*
X131105000Y-129380000D02*
X131105000Y-129780000D01*
X131105000Y-124280000D02*
X131105000Y-124680000D01*
X131105000Y-91280000D02*
X131105000Y-91680000D01*
X131105000Y-83580000D02*
X131105000Y-83980000D01*
X131105000Y-86180000D02*
X131105000Y-86580000D01*
X131105000Y-116680000D02*
X131105000Y-117080000D01*
X131105000Y-108980000D02*
X131105000Y-109380000D01*
X131105000Y-101380000D02*
X131105000Y-101780000D01*
X131105000Y-96280000D02*
X131105000Y-96680000D01*
X152105000Y-129380000D02*
X152105000Y-129780000D01*
X152105000Y-126780000D02*
X152105000Y-127180000D01*
X152105000Y-124280000D02*
X152105000Y-124680000D01*
X152105000Y-121780000D02*
X152105000Y-122180000D01*
X152105000Y-119180000D02*
X152105000Y-119580000D01*
X152105000Y-116680000D02*
X152105000Y-117080000D01*
X152105000Y-114080000D02*
X152105000Y-114480000D01*
X152105000Y-111580000D02*
X152105000Y-111980000D01*
X152105000Y-108980000D02*
X152105000Y-109380000D01*
X152105000Y-106480000D02*
X152105000Y-106880000D01*
X152105000Y-103980000D02*
X152105000Y-104380000D01*
X152105000Y-101380000D02*
X152105000Y-101780000D01*
X152105000Y-98880000D02*
X152105000Y-99280000D01*
X152105000Y-96280000D02*
X152105000Y-96680000D01*
X152105000Y-93780000D02*
X152105000Y-94180000D01*
X152105000Y-91280000D02*
X152105000Y-91680000D01*
X152105000Y-88680000D02*
X152105000Y-89080000D01*
X152105000Y-86180000D02*
X152105000Y-86580000D01*
X152105000Y-83580000D02*
X152105000Y-83980000D01*
X152105000Y-81180000D02*
X152105000Y-81480000D01*
X149098000Y-83847000D02*
X149098000Y-81180000D01*
X152105000Y-83847000D02*
X149098000Y-83847000D01*
X145305000Y-132180000D02*
X152105000Y-132180000D01*
X152105000Y-81180000D02*
X131105000Y-81180000D01*
X173785000Y-93845000D02*
X173285000Y-93345000D01*
X173785000Y-92845000D02*
X173785000Y-93845000D01*
X173285000Y-93345000D02*
X173785000Y-92845000D01*
X172985000Y-84045000D02*
X172985000Y-95445000D01*
X172985000Y-95445000D02*
X168385000Y-95445000D01*
X165685000Y-95445000D02*
X166785000Y-95445000D01*
X166885000Y-84045000D02*
X165685000Y-84045000D01*
X172985000Y-84045000D02*
X172685000Y-84045000D01*
X166885000Y-81245000D02*
X172685000Y-81245000D01*
X165685000Y-84045000D02*
X165685000Y-95445000D01*
X166885000Y-84045000D02*
X166885000Y-81245000D01*
X172685000Y-84045000D02*
X172685000Y-81245000D01*
D11*
X142366904Y-106132380D02*
X142366904Y-106941904D01*
X142319285Y-107037142D01*
X142271666Y-107084761D01*
X142176428Y-107132380D01*
X141985952Y-107132380D01*
X141890714Y-107084761D01*
X141843095Y-107037142D01*
X141795476Y-106941904D01*
X141795476Y-106132380D01*
X140795476Y-107132380D02*
X141366904Y-107132380D01*
X141081190Y-107132380D02*
X141081190Y-106132380D01*
X141176428Y-106275238D01*
X141271666Y-106370476D01*
X141366904Y-106418095D01*
X155191903Y-85201218D02*
X155272715Y-85228155D01*
X155353528Y-85308967D01*
X155407402Y-85416717D01*
X155407402Y-85524467D01*
X155380465Y-85605279D01*
X155299653Y-85739966D01*
X155218841Y-85820778D01*
X155084154Y-85901590D01*
X155003341Y-85928528D01*
X154895592Y-85928528D01*
X154787842Y-85874653D01*
X154733967Y-85820778D01*
X154680093Y-85713028D01*
X154680093Y-85659154D01*
X154868654Y-85470592D01*
X154976404Y-85578341D01*
X154383781Y-85470592D02*
X154949467Y-84904906D01*
X154733967Y-84689407D01*
X154653155Y-84662470D01*
X154599280Y-84662470D01*
X154518468Y-84689407D01*
X154437656Y-84770219D01*
X154410719Y-84851032D01*
X154410719Y-84904906D01*
X154437656Y-84985719D01*
X154653155Y-85201218D01*
X153521784Y-84608595D02*
X153845033Y-84931844D01*
X153683409Y-84770219D02*
X154249094Y-84204534D01*
X154222157Y-84339221D01*
X154222157Y-84446971D01*
X154249094Y-84527783D01*
X155191903Y-90291218D02*
X155272715Y-90318155D01*
X155353528Y-90398967D01*
X155407402Y-90506717D01*
X155407402Y-90614467D01*
X155380465Y-90695279D01*
X155299653Y-90829966D01*
X155218841Y-90910778D01*
X155084154Y-90991590D01*
X155003341Y-91018528D01*
X154895592Y-91018528D01*
X154787842Y-90964653D01*
X154733967Y-90910778D01*
X154680093Y-90803028D01*
X154680093Y-90749154D01*
X154868654Y-90560592D01*
X154976404Y-90668341D01*
X154383781Y-90560592D02*
X154949467Y-89994906D01*
X154733967Y-89779407D01*
X154653155Y-89752470D01*
X154599280Y-89752470D01*
X154518468Y-89779407D01*
X154437656Y-89860219D01*
X154410719Y-89941032D01*
X154410719Y-89994906D01*
X154437656Y-90075719D01*
X154653155Y-90291218D01*
X154356844Y-89510033D02*
X154356844Y-89456158D01*
X154329906Y-89375346D01*
X154195219Y-89240659D01*
X154114407Y-89213722D01*
X154060532Y-89213722D01*
X153979720Y-89240659D01*
X153925845Y-89294534D01*
X153871971Y-89402284D01*
X153871971Y-90048781D01*
X153521784Y-89698595D01*
X155091903Y-82671218D02*
X155172715Y-82698155D01*
X155253528Y-82778967D01*
X155307402Y-82886717D01*
X155307402Y-82994467D01*
X155280465Y-83075279D01*
X155199653Y-83209966D01*
X155118841Y-83290778D01*
X154984154Y-83371590D01*
X154903341Y-83398528D01*
X154795592Y-83398528D01*
X154687842Y-83344653D01*
X154633967Y-83290778D01*
X154580093Y-83183028D01*
X154580093Y-83129154D01*
X154768654Y-82940592D01*
X154876404Y-83048341D01*
X154283781Y-82940592D02*
X154849467Y-82374906D01*
X154633967Y-82159407D01*
X154553155Y-82132470D01*
X154499280Y-82132470D01*
X154418468Y-82159407D01*
X154337656Y-82240219D01*
X154310719Y-82321032D01*
X154310719Y-82374906D01*
X154337656Y-82455719D01*
X154553155Y-82671218D01*
X154176032Y-81701471D02*
X154122157Y-81647597D01*
X154041345Y-81620659D01*
X153987470Y-81620659D01*
X153906658Y-81647597D01*
X153771971Y-81728409D01*
X153637284Y-81863096D01*
X153556471Y-81997783D01*
X153529534Y-82078595D01*
X153529534Y-82132470D01*
X153556471Y-82213282D01*
X153610346Y-82267157D01*
X153691158Y-82294094D01*
X153745033Y-82294094D01*
X153825845Y-82267157D01*
X153960532Y-82186345D01*
X154095219Y-82051658D01*
X154176032Y-81916971D01*
X154202969Y-81836158D01*
X154202969Y-81782284D01*
X154176032Y-81701471D01*
X155091903Y-92831218D02*
X155172715Y-92858155D01*
X155253528Y-92938967D01*
X155307402Y-93046717D01*
X155307402Y-93154467D01*
X155280465Y-93235279D01*
X155199653Y-93369966D01*
X155118841Y-93450778D01*
X154984154Y-93531590D01*
X154903341Y-93558528D01*
X154795592Y-93558528D01*
X154687842Y-93504653D01*
X154633967Y-93450778D01*
X154580093Y-93343028D01*
X154580093Y-93289154D01*
X154768654Y-93100592D01*
X154876404Y-93208341D01*
X154283781Y-93100592D02*
X154849467Y-92534906D01*
X154633967Y-92319407D01*
X154553155Y-92292470D01*
X154499280Y-92292470D01*
X154418468Y-92319407D01*
X154337656Y-92400219D01*
X154310719Y-92481032D01*
X154310719Y-92534906D01*
X154337656Y-92615719D01*
X154553155Y-92831218D01*
X154337656Y-92023096D02*
X153987470Y-91672910D01*
X153960532Y-92076971D01*
X153879720Y-91996158D01*
X153798908Y-91969221D01*
X153745033Y-91969221D01*
X153664221Y-91996158D01*
X153529534Y-92130845D01*
X153502597Y-92211658D01*
X153502597Y-92265532D01*
X153529534Y-92346345D01*
X153691158Y-92507969D01*
X153771971Y-92534906D01*
X153825845Y-92534906D01*
X155091903Y-95371218D02*
X155172715Y-95398155D01*
X155253528Y-95478967D01*
X155307402Y-95586717D01*
X155307402Y-95694467D01*
X155280465Y-95775279D01*
X155199653Y-95909966D01*
X155118841Y-95990778D01*
X154984154Y-96071590D01*
X154903341Y-96098528D01*
X154795592Y-96098528D01*
X154687842Y-96044653D01*
X154633967Y-95990778D01*
X154580093Y-95883028D01*
X154580093Y-95829154D01*
X154768654Y-95640592D01*
X154876404Y-95748341D01*
X154283781Y-95640592D02*
X154849467Y-95074906D01*
X154633967Y-94859407D01*
X154553155Y-94832470D01*
X154499280Y-94832470D01*
X154418468Y-94859407D01*
X154337656Y-94940219D01*
X154310719Y-95021032D01*
X154310719Y-95074906D01*
X154337656Y-95155719D01*
X154553155Y-95371218D01*
X153852783Y-94455346D02*
X153475659Y-94832470D01*
X154202969Y-94374534D02*
X153933595Y-94913282D01*
X153583409Y-94563096D01*
X155091903Y-97911218D02*
X155172715Y-97938155D01*
X155253528Y-98018967D01*
X155307402Y-98126717D01*
X155307402Y-98234467D01*
X155280465Y-98315279D01*
X155199653Y-98449966D01*
X155118841Y-98530778D01*
X154984154Y-98611590D01*
X154903341Y-98638528D01*
X154795592Y-98638528D01*
X154687842Y-98584653D01*
X154633967Y-98530778D01*
X154580093Y-98423028D01*
X154580093Y-98369154D01*
X154768654Y-98180592D01*
X154876404Y-98288341D01*
X154283781Y-98180592D02*
X154849467Y-97614906D01*
X154633967Y-97399407D01*
X154553155Y-97372470D01*
X154499280Y-97372470D01*
X154418468Y-97399407D01*
X154337656Y-97480219D01*
X154310719Y-97561032D01*
X154310719Y-97614906D01*
X154337656Y-97695719D01*
X154553155Y-97911218D01*
X154014407Y-96779847D02*
X154283781Y-97049221D01*
X154041345Y-97345532D01*
X154041345Y-97291658D01*
X154014407Y-97210845D01*
X153879720Y-97076158D01*
X153798908Y-97049221D01*
X153745033Y-97049221D01*
X153664221Y-97076158D01*
X153529534Y-97210845D01*
X153502597Y-97291658D01*
X153502597Y-97345532D01*
X153529534Y-97426345D01*
X153664221Y-97561032D01*
X153745033Y-97587969D01*
X153798908Y-97587969D01*
X155091903Y-102991218D02*
X155172715Y-103018155D01*
X155253528Y-103098967D01*
X155307402Y-103206717D01*
X155307402Y-103314467D01*
X155280465Y-103395279D01*
X155199653Y-103529966D01*
X155118841Y-103610778D01*
X154984154Y-103691590D01*
X154903341Y-103718528D01*
X154795592Y-103718528D01*
X154687842Y-103664653D01*
X154633967Y-103610778D01*
X154580093Y-103503028D01*
X154580093Y-103449154D01*
X154768654Y-103260592D01*
X154876404Y-103368341D01*
X154283781Y-103260592D02*
X154849467Y-102694906D01*
X154633967Y-102479407D01*
X154553155Y-102452470D01*
X154499280Y-102452470D01*
X154418468Y-102479407D01*
X154337656Y-102560219D01*
X154310719Y-102641032D01*
X154310719Y-102694906D01*
X154337656Y-102775719D01*
X154553155Y-102991218D01*
X154041345Y-101886784D02*
X154149094Y-101994534D01*
X154176032Y-102075346D01*
X154176032Y-102129221D01*
X154149094Y-102263908D01*
X154068282Y-102398595D01*
X153852783Y-102614094D01*
X153771971Y-102641032D01*
X153718096Y-102641032D01*
X153637284Y-102614094D01*
X153529534Y-102506345D01*
X153502597Y-102425532D01*
X153502597Y-102371658D01*
X153529534Y-102290845D01*
X153664221Y-102156158D01*
X153745033Y-102129221D01*
X153798908Y-102129221D01*
X153879720Y-102156158D01*
X153987470Y-102263908D01*
X154014407Y-102344720D01*
X154014407Y-102398595D01*
X153987470Y-102479407D01*
X154991903Y-105501218D02*
X155072715Y-105528155D01*
X155153528Y-105608967D01*
X155207402Y-105716717D01*
X155207402Y-105824467D01*
X155180465Y-105905279D01*
X155099653Y-106039966D01*
X155018841Y-106120778D01*
X154884154Y-106201590D01*
X154803341Y-106228528D01*
X154695592Y-106228528D01*
X154587842Y-106174653D01*
X154533967Y-106120778D01*
X154480093Y-106013028D01*
X154480093Y-105959154D01*
X154668654Y-105770592D01*
X154776404Y-105878341D01*
X154183781Y-105770592D02*
X154749467Y-105204906D01*
X154533967Y-104989407D01*
X154453155Y-104962470D01*
X154399280Y-104962470D01*
X154318468Y-104989407D01*
X154237656Y-105070219D01*
X154210719Y-105151032D01*
X154210719Y-105204906D01*
X154237656Y-105285719D01*
X154453155Y-105501218D01*
X154237656Y-104693096D02*
X153860532Y-104315972D01*
X153537284Y-105124094D01*
X155091903Y-108071218D02*
X155172715Y-108098155D01*
X155253528Y-108178967D01*
X155307402Y-108286717D01*
X155307402Y-108394467D01*
X155280465Y-108475279D01*
X155199653Y-108609966D01*
X155118841Y-108690778D01*
X154984154Y-108771590D01*
X154903341Y-108798528D01*
X154795592Y-108798528D01*
X154687842Y-108744653D01*
X154633967Y-108690778D01*
X154580093Y-108583028D01*
X154580093Y-108529154D01*
X154768654Y-108340592D01*
X154876404Y-108448341D01*
X154283781Y-108340592D02*
X154849467Y-107774906D01*
X154633967Y-107559407D01*
X154553155Y-107532470D01*
X154499280Y-107532470D01*
X154418468Y-107559407D01*
X154337656Y-107640219D01*
X154310719Y-107721032D01*
X154310719Y-107774906D01*
X154337656Y-107855719D01*
X154553155Y-108071218D01*
X153960532Y-107370845D02*
X154041345Y-107397783D01*
X154095219Y-107397783D01*
X154176032Y-107370845D01*
X154202969Y-107343908D01*
X154229906Y-107263096D01*
X154229906Y-107209221D01*
X154202969Y-107128409D01*
X154095219Y-107020659D01*
X154014407Y-106993722D01*
X153960532Y-106993722D01*
X153879720Y-107020659D01*
X153852783Y-107047597D01*
X153825845Y-107128409D01*
X153825845Y-107182284D01*
X153852783Y-107263096D01*
X153960532Y-107370845D01*
X153987470Y-107451658D01*
X153987470Y-107505532D01*
X153960532Y-107586345D01*
X153852783Y-107694094D01*
X153771971Y-107721032D01*
X153718096Y-107721032D01*
X153637284Y-107694094D01*
X153529534Y-107586345D01*
X153502597Y-107505532D01*
X153502597Y-107451658D01*
X153529534Y-107370845D01*
X153637284Y-107263096D01*
X153718096Y-107236158D01*
X153771971Y-107236158D01*
X153852783Y-107263096D01*
X155091903Y-110611218D02*
X155172715Y-110638155D01*
X155253528Y-110718967D01*
X155307402Y-110826717D01*
X155307402Y-110934467D01*
X155280465Y-111015279D01*
X155199653Y-111149966D01*
X155118841Y-111230778D01*
X154984154Y-111311590D01*
X154903341Y-111338528D01*
X154795592Y-111338528D01*
X154687842Y-111284653D01*
X154633967Y-111230778D01*
X154580093Y-111123028D01*
X154580093Y-111069154D01*
X154768654Y-110880592D01*
X154876404Y-110988341D01*
X154283781Y-110880592D02*
X154849467Y-110314906D01*
X154633967Y-110099407D01*
X154553155Y-110072470D01*
X154499280Y-110072470D01*
X154418468Y-110099407D01*
X154337656Y-110180219D01*
X154310719Y-110261032D01*
X154310719Y-110314906D01*
X154337656Y-110395719D01*
X154553155Y-110611218D01*
X153691158Y-110287969D02*
X153583409Y-110180219D01*
X153556471Y-110099407D01*
X153556471Y-110045532D01*
X153583409Y-109910845D01*
X153664221Y-109776158D01*
X153879720Y-109560659D01*
X153960532Y-109533722D01*
X154014407Y-109533722D01*
X154095219Y-109560659D01*
X154202969Y-109668409D01*
X154229906Y-109749221D01*
X154229906Y-109803096D01*
X154202969Y-109883908D01*
X154068282Y-110018595D01*
X153987470Y-110045532D01*
X153933595Y-110045532D01*
X153852783Y-110018595D01*
X153745033Y-109910845D01*
X153718096Y-109830033D01*
X153718096Y-109776158D01*
X153745033Y-109695346D01*
X155615277Y-115960592D02*
X155696089Y-115987529D01*
X155776902Y-116068341D01*
X155830776Y-116176091D01*
X155830776Y-116283841D01*
X155803839Y-116364653D01*
X155723027Y-116499340D01*
X155642215Y-116580152D01*
X155507528Y-116660964D01*
X155426715Y-116687902D01*
X155318966Y-116687902D01*
X155211216Y-116634027D01*
X155157341Y-116580152D01*
X155103467Y-116472402D01*
X155103467Y-116418528D01*
X155292028Y-116229966D01*
X155399778Y-116337715D01*
X154807155Y-116229966D02*
X155372841Y-115664280D01*
X155157341Y-115448781D01*
X155076529Y-115421844D01*
X155022654Y-115421844D01*
X154941842Y-115448781D01*
X154861030Y-115529593D01*
X154834093Y-115610406D01*
X154834093Y-115664280D01*
X154861030Y-115745093D01*
X155076529Y-115960592D01*
X153945158Y-115367969D02*
X154268407Y-115691218D01*
X154106783Y-115529593D02*
X154672468Y-114963908D01*
X154645531Y-115098595D01*
X154645531Y-115206345D01*
X154672468Y-115287157D01*
X154160658Y-114452097D02*
X154106783Y-114398223D01*
X154025971Y-114371285D01*
X153972096Y-114371285D01*
X153891284Y-114398223D01*
X153756597Y-114479035D01*
X153621910Y-114613722D01*
X153541097Y-114748409D01*
X153514160Y-114829221D01*
X153514160Y-114883096D01*
X153541097Y-114963908D01*
X153594972Y-115017783D01*
X153675784Y-115044720D01*
X153729659Y-115044720D01*
X153810471Y-115017783D01*
X153945158Y-114936971D01*
X154079845Y-114802284D01*
X154160658Y-114667597D01*
X154187595Y-114586784D01*
X154187595Y-114532910D01*
X154160658Y-114452097D01*
X155761277Y-118500592D02*
X155842089Y-118527529D01*
X155922902Y-118608341D01*
X155976776Y-118716091D01*
X155976776Y-118823841D01*
X155949839Y-118904653D01*
X155869027Y-119039340D01*
X155788215Y-119120152D01*
X155653528Y-119200964D01*
X155572715Y-119227902D01*
X155464966Y-119227902D01*
X155357216Y-119174027D01*
X155303341Y-119120152D01*
X155249467Y-119012402D01*
X155249467Y-118958528D01*
X155438028Y-118769966D01*
X155545778Y-118877715D01*
X154953155Y-118769966D02*
X155518841Y-118204280D01*
X155303341Y-117988781D01*
X155222529Y-117961844D01*
X155168654Y-117961844D01*
X155087842Y-117988781D01*
X155007030Y-118069593D01*
X154980093Y-118150406D01*
X154980093Y-118204280D01*
X155007030Y-118285093D01*
X155222529Y-118500592D01*
X154091158Y-117907969D02*
X154414407Y-118231218D01*
X154252783Y-118069593D02*
X154818468Y-117503908D01*
X154791531Y-117638595D01*
X154791531Y-117746345D01*
X154818468Y-117827157D01*
X153552410Y-117369221D02*
X153875659Y-117692470D01*
X153714035Y-117530845D02*
X154279720Y-116965160D01*
X154252783Y-117099847D01*
X154252783Y-117207597D01*
X154279720Y-117288409D01*
X155761277Y-121040592D02*
X155842089Y-121067529D01*
X155922902Y-121148341D01*
X155976776Y-121256091D01*
X155976776Y-121363841D01*
X155949839Y-121444653D01*
X155869027Y-121579340D01*
X155788215Y-121660152D01*
X155653528Y-121740964D01*
X155572715Y-121767902D01*
X155464966Y-121767902D01*
X155357216Y-121714027D01*
X155303341Y-121660152D01*
X155249467Y-121552402D01*
X155249467Y-121498528D01*
X155438028Y-121309966D01*
X155545778Y-121417715D01*
X154953155Y-121309966D02*
X155518841Y-120744280D01*
X155303341Y-120528781D01*
X155222529Y-120501844D01*
X155168654Y-120501844D01*
X155087842Y-120528781D01*
X155007030Y-120609593D01*
X154980093Y-120690406D01*
X154980093Y-120744280D01*
X155007030Y-120825093D01*
X155222529Y-121040592D01*
X154091158Y-120447969D02*
X154414407Y-120771218D01*
X154252783Y-120609593D02*
X154818468Y-120043908D01*
X154791531Y-120178595D01*
X154791531Y-120286345D01*
X154818468Y-120367157D01*
X154387470Y-119720659D02*
X154387470Y-119666784D01*
X154360532Y-119585972D01*
X154225845Y-119451285D01*
X154145033Y-119424348D01*
X154091158Y-119424348D01*
X154010346Y-119451285D01*
X153956471Y-119505160D01*
X153902597Y-119612910D01*
X153902597Y-120259407D01*
X153552410Y-119909221D01*
X155615277Y-123580592D02*
X155696089Y-123607529D01*
X155776902Y-123688341D01*
X155830776Y-123796091D01*
X155830776Y-123903841D01*
X155803839Y-123984653D01*
X155723027Y-124119340D01*
X155642215Y-124200152D01*
X155507528Y-124280964D01*
X155426715Y-124307902D01*
X155318966Y-124307902D01*
X155211216Y-124254027D01*
X155157341Y-124200152D01*
X155103467Y-124092402D01*
X155103467Y-124038528D01*
X155292028Y-123849966D01*
X155399778Y-123957715D01*
X154807155Y-123849966D02*
X155372841Y-123284280D01*
X155157341Y-123068781D01*
X155076529Y-123041844D01*
X155022654Y-123041844D01*
X154941842Y-123068781D01*
X154861030Y-123149593D01*
X154834093Y-123230406D01*
X154834093Y-123284280D01*
X154861030Y-123365093D01*
X155076529Y-123580592D01*
X153945158Y-122987969D02*
X154268407Y-123311218D01*
X154106783Y-123149593D02*
X154672468Y-122583908D01*
X154645531Y-122718595D01*
X154645531Y-122826345D01*
X154672468Y-122907157D01*
X154322282Y-122233722D02*
X153972096Y-121883536D01*
X153945158Y-122287597D01*
X153864346Y-122206784D01*
X153783534Y-122179847D01*
X153729659Y-122179847D01*
X153648847Y-122206784D01*
X153514160Y-122341471D01*
X153487223Y-122422284D01*
X153487223Y-122476158D01*
X153514160Y-122556971D01*
X153675784Y-122718595D01*
X153756597Y-122745532D01*
X153810471Y-122745532D01*
X155661277Y-128660592D02*
X155742089Y-128687529D01*
X155822902Y-128768341D01*
X155876776Y-128876091D01*
X155876776Y-128983841D01*
X155849839Y-129064653D01*
X155769027Y-129199340D01*
X155688215Y-129280152D01*
X155553528Y-129360964D01*
X155472715Y-129387902D01*
X155364966Y-129387902D01*
X155257216Y-129334027D01*
X155203341Y-129280152D01*
X155149467Y-129172402D01*
X155149467Y-129118528D01*
X155338028Y-128929966D01*
X155445778Y-129037715D01*
X154853155Y-128929966D02*
X155418841Y-128364280D01*
X155203341Y-128148781D01*
X155122529Y-128121844D01*
X155068654Y-128121844D01*
X154987842Y-128148781D01*
X154907030Y-128229593D01*
X154880093Y-128310406D01*
X154880093Y-128364280D01*
X154907030Y-128445093D01*
X155122529Y-128660592D01*
X153991158Y-128067969D02*
X154314407Y-128391218D01*
X154152783Y-128229593D02*
X154718468Y-127663908D01*
X154691531Y-127798595D01*
X154691531Y-127906345D01*
X154718468Y-127987157D01*
X153883409Y-127205972D02*
X153506285Y-127583096D01*
X154233595Y-127125160D02*
X153964221Y-127663908D01*
X153614035Y-127313722D01*
X155615277Y-131200592D02*
X155696089Y-131227529D01*
X155776902Y-131308341D01*
X155830776Y-131416091D01*
X155830776Y-131523841D01*
X155803839Y-131604653D01*
X155723027Y-131739340D01*
X155642215Y-131820152D01*
X155507528Y-131900964D01*
X155426715Y-131927902D01*
X155318966Y-131927902D01*
X155211216Y-131874027D01*
X155157341Y-131820152D01*
X155103467Y-131712402D01*
X155103467Y-131658528D01*
X155292028Y-131469966D01*
X155399778Y-131577715D01*
X154807155Y-131469966D02*
X155372841Y-130904280D01*
X155157341Y-130688781D01*
X155076529Y-130661844D01*
X155022654Y-130661844D01*
X154941842Y-130688781D01*
X154861030Y-130769593D01*
X154834093Y-130850406D01*
X154834093Y-130904280D01*
X154861030Y-130985093D01*
X155076529Y-131200592D01*
X153945158Y-130607969D02*
X154268407Y-130931218D01*
X154106783Y-130769593D02*
X154672468Y-130203908D01*
X154645531Y-130338595D01*
X154645531Y-130446345D01*
X154672468Y-130527157D01*
X153999033Y-129530473D02*
X154268407Y-129799847D01*
X154025971Y-130096158D01*
X154025971Y-130042284D01*
X153999033Y-129961471D01*
X153864346Y-129826784D01*
X153783534Y-129799847D01*
X153729659Y-129799847D01*
X153648847Y-129826784D01*
X153514160Y-129961471D01*
X153487223Y-130042284D01*
X153487223Y-130096158D01*
X153514160Y-130176971D01*
X153648847Y-130311658D01*
X153729659Y-130338595D01*
X153783534Y-130338595D01*
X129507277Y-131200592D02*
X129588089Y-131227529D01*
X129668902Y-131308341D01*
X129722776Y-131416091D01*
X129722776Y-131523841D01*
X129695839Y-131604653D01*
X129615027Y-131739340D01*
X129534215Y-131820152D01*
X129399528Y-131900964D01*
X129318715Y-131927902D01*
X129210966Y-131927902D01*
X129103216Y-131874027D01*
X129049341Y-131820152D01*
X128995467Y-131712402D01*
X128995467Y-131658528D01*
X129184028Y-131469966D01*
X129291778Y-131577715D01*
X128699155Y-131469966D02*
X129264841Y-130904280D01*
X129049341Y-130688781D01*
X128968529Y-130661844D01*
X128914654Y-130661844D01*
X128833842Y-130688781D01*
X128753030Y-130769593D01*
X128726093Y-130850406D01*
X128726093Y-130904280D01*
X128753030Y-130985093D01*
X128968529Y-131200592D01*
X127837158Y-130607969D02*
X128160407Y-130931218D01*
X127998783Y-130769593D02*
X128564468Y-130203908D01*
X128537531Y-130338595D01*
X128537531Y-130446345D01*
X128564468Y-130527157D01*
X127917971Y-129557410D02*
X128025720Y-129665160D01*
X128052658Y-129745972D01*
X128052658Y-129799847D01*
X128025720Y-129934534D01*
X127944908Y-130069221D01*
X127729409Y-130284720D01*
X127648597Y-130311658D01*
X127594722Y-130311658D01*
X127513910Y-130284720D01*
X127406160Y-130176971D01*
X127379223Y-130096158D01*
X127379223Y-130042284D01*
X127406160Y-129961471D01*
X127540847Y-129826784D01*
X127621659Y-129799847D01*
X127675534Y-129799847D01*
X127756346Y-129826784D01*
X127864096Y-129934534D01*
X127891033Y-130015346D01*
X127891033Y-130069221D01*
X127864096Y-130150033D01*
X129507277Y-128660592D02*
X129588089Y-128687529D01*
X129668902Y-128768341D01*
X129722776Y-128876091D01*
X129722776Y-128983841D01*
X129695839Y-129064653D01*
X129615027Y-129199340D01*
X129534215Y-129280152D01*
X129399528Y-129360964D01*
X129318715Y-129387902D01*
X129210966Y-129387902D01*
X129103216Y-129334027D01*
X129049341Y-129280152D01*
X128995467Y-129172402D01*
X128995467Y-129118528D01*
X129184028Y-128929966D01*
X129291778Y-129037715D01*
X128699155Y-128929966D02*
X129264841Y-128364280D01*
X129049341Y-128148781D01*
X128968529Y-128121844D01*
X128914654Y-128121844D01*
X128833842Y-128148781D01*
X128753030Y-128229593D01*
X128726093Y-128310406D01*
X128726093Y-128364280D01*
X128753030Y-128445093D01*
X128968529Y-128660592D01*
X127837158Y-128067969D02*
X128160407Y-128391218D01*
X127998783Y-128229593D02*
X128564468Y-127663908D01*
X128537531Y-127798595D01*
X128537531Y-127906345D01*
X128564468Y-127987157D01*
X128214282Y-127313722D02*
X127837158Y-126936598D01*
X127513910Y-127744720D01*
X129507277Y-123580592D02*
X129588089Y-123607529D01*
X129668902Y-123688341D01*
X129722776Y-123796091D01*
X129722776Y-123903841D01*
X129695839Y-123984653D01*
X129615027Y-124119340D01*
X129534215Y-124200152D01*
X129399528Y-124280964D01*
X129318715Y-124307902D01*
X129210966Y-124307902D01*
X129103216Y-124254027D01*
X129049341Y-124200152D01*
X128995467Y-124092402D01*
X128995467Y-124038528D01*
X129184028Y-123849966D01*
X129291778Y-123957715D01*
X128699155Y-123849966D02*
X129264841Y-123284280D01*
X129049341Y-123068781D01*
X128968529Y-123041844D01*
X128914654Y-123041844D01*
X128833842Y-123068781D01*
X128753030Y-123149593D01*
X128726093Y-123230406D01*
X128726093Y-123284280D01*
X128753030Y-123365093D01*
X128968529Y-123580592D01*
X127837158Y-122987969D02*
X128160407Y-123311218D01*
X127998783Y-123149593D02*
X128564468Y-122583908D01*
X128537531Y-122718595D01*
X128537531Y-122826345D01*
X128564468Y-122907157D01*
X127837158Y-122341471D02*
X127917971Y-122368409D01*
X127971845Y-122368409D01*
X128052658Y-122341471D01*
X128079595Y-122314534D01*
X128106532Y-122233722D01*
X128106532Y-122179847D01*
X128079595Y-122099035D01*
X127971845Y-121991285D01*
X127891033Y-121964348D01*
X127837158Y-121964348D01*
X127756346Y-121991285D01*
X127729409Y-122018223D01*
X127702471Y-122099035D01*
X127702471Y-122152910D01*
X127729409Y-122233722D01*
X127837158Y-122341471D01*
X127864096Y-122422284D01*
X127864096Y-122476158D01*
X127837158Y-122556971D01*
X127729409Y-122664720D01*
X127648597Y-122691658D01*
X127594722Y-122691658D01*
X127513910Y-122664720D01*
X127406160Y-122556971D01*
X127379223Y-122476158D01*
X127379223Y-122422284D01*
X127406160Y-122341471D01*
X127513910Y-122233722D01*
X127594722Y-122206784D01*
X127648597Y-122206784D01*
X127729409Y-122233722D01*
X129507277Y-121040592D02*
X129588089Y-121067529D01*
X129668902Y-121148341D01*
X129722776Y-121256091D01*
X129722776Y-121363841D01*
X129695839Y-121444653D01*
X129615027Y-121579340D01*
X129534215Y-121660152D01*
X129399528Y-121740964D01*
X129318715Y-121767902D01*
X129210966Y-121767902D01*
X129103216Y-121714027D01*
X129049341Y-121660152D01*
X128995467Y-121552402D01*
X128995467Y-121498528D01*
X129184028Y-121309966D01*
X129291778Y-121417715D01*
X128699155Y-121309966D02*
X129264841Y-120744280D01*
X129049341Y-120528781D01*
X128968529Y-120501844D01*
X128914654Y-120501844D01*
X128833842Y-120528781D01*
X128753030Y-120609593D01*
X128726093Y-120690406D01*
X128726093Y-120744280D01*
X128753030Y-120825093D01*
X128968529Y-121040592D01*
X127837158Y-120447969D02*
X128160407Y-120771218D01*
X127998783Y-120609593D02*
X128564468Y-120043908D01*
X128537531Y-120178595D01*
X128537531Y-120286345D01*
X128564468Y-120367157D01*
X127567784Y-120178595D02*
X127460035Y-120070845D01*
X127433097Y-119990033D01*
X127433097Y-119936158D01*
X127460035Y-119801471D01*
X127540847Y-119666784D01*
X127756346Y-119451285D01*
X127837158Y-119424348D01*
X127891033Y-119424348D01*
X127971845Y-119451285D01*
X128079595Y-119559035D01*
X128106532Y-119639847D01*
X128106532Y-119693722D01*
X128079595Y-119774534D01*
X127944908Y-119909221D01*
X127864096Y-119936158D01*
X127810221Y-119936158D01*
X127729409Y-119909221D01*
X127621659Y-119801471D01*
X127594722Y-119720659D01*
X127594722Y-119666784D01*
X127621659Y-119585972D01*
X129507277Y-118500592D02*
X129588089Y-118527529D01*
X129668902Y-118608341D01*
X129722776Y-118716091D01*
X129722776Y-118823841D01*
X129695839Y-118904653D01*
X129615027Y-119039340D01*
X129534215Y-119120152D01*
X129399528Y-119200964D01*
X129318715Y-119227902D01*
X129210966Y-119227902D01*
X129103216Y-119174027D01*
X129049341Y-119120152D01*
X128995467Y-119012402D01*
X128995467Y-118958528D01*
X129184028Y-118769966D01*
X129291778Y-118877715D01*
X128699155Y-118769966D02*
X129264841Y-118204280D01*
X129049341Y-117988781D01*
X128968529Y-117961844D01*
X128914654Y-117961844D01*
X128833842Y-117988781D01*
X128753030Y-118069593D01*
X128726093Y-118150406D01*
X128726093Y-118204280D01*
X128753030Y-118285093D01*
X128968529Y-118500592D01*
X128672218Y-117719407D02*
X128672218Y-117665532D01*
X128645280Y-117584720D01*
X128510593Y-117450033D01*
X128429781Y-117423096D01*
X128375906Y-117423096D01*
X128295094Y-117450033D01*
X128241219Y-117503908D01*
X128187345Y-117611658D01*
X128187345Y-118258155D01*
X127837158Y-117907969D01*
X128052658Y-116992097D02*
X127998783Y-116938223D01*
X127917971Y-116911285D01*
X127864096Y-116911285D01*
X127783284Y-116938223D01*
X127648597Y-117019035D01*
X127513910Y-117153722D01*
X127433097Y-117288409D01*
X127406160Y-117369221D01*
X127406160Y-117423096D01*
X127433097Y-117503908D01*
X127486972Y-117557783D01*
X127567784Y-117584720D01*
X127621659Y-117584720D01*
X127702471Y-117557783D01*
X127837158Y-117476971D01*
X127971845Y-117342284D01*
X128052658Y-117207597D01*
X128079595Y-117126784D01*
X128079595Y-117072910D01*
X128052658Y-116992097D01*
X129507277Y-115970592D02*
X129588089Y-115997529D01*
X129668902Y-116078341D01*
X129722776Y-116186091D01*
X129722776Y-116293841D01*
X129695839Y-116374653D01*
X129615027Y-116509340D01*
X129534215Y-116590152D01*
X129399528Y-116670964D01*
X129318715Y-116697902D01*
X129210966Y-116697902D01*
X129103216Y-116644027D01*
X129049341Y-116590152D01*
X128995467Y-116482402D01*
X128995467Y-116428528D01*
X129184028Y-116239966D01*
X129291778Y-116347715D01*
X128699155Y-116239966D02*
X129264841Y-115674280D01*
X129049341Y-115458781D01*
X128968529Y-115431844D01*
X128914654Y-115431844D01*
X128833842Y-115458781D01*
X128753030Y-115539593D01*
X128726093Y-115620406D01*
X128726093Y-115674280D01*
X128753030Y-115755093D01*
X128968529Y-115970592D01*
X128672218Y-115189407D02*
X128672218Y-115135532D01*
X128645280Y-115054720D01*
X128510593Y-114920033D01*
X128429781Y-114893096D01*
X128375906Y-114893096D01*
X128295094Y-114920033D01*
X128241219Y-114973908D01*
X128187345Y-115081658D01*
X128187345Y-115728155D01*
X127837158Y-115377969D01*
X127298410Y-114839221D02*
X127621659Y-115162470D01*
X127460035Y-115000845D02*
X128025720Y-114435160D01*
X127998783Y-114569847D01*
X127998783Y-114677597D01*
X128025720Y-114758409D01*
X129507277Y-110880592D02*
X129588089Y-110907529D01*
X129668902Y-110988341D01*
X129722776Y-111096091D01*
X129722776Y-111203841D01*
X129695839Y-111284653D01*
X129615027Y-111419340D01*
X129534215Y-111500152D01*
X129399528Y-111580964D01*
X129318715Y-111607902D01*
X129210966Y-111607902D01*
X129103216Y-111554027D01*
X129049341Y-111500152D01*
X128995467Y-111392402D01*
X128995467Y-111338528D01*
X129184028Y-111149966D01*
X129291778Y-111257715D01*
X128699155Y-111149966D02*
X129264841Y-110584280D01*
X129049341Y-110368781D01*
X128968529Y-110341844D01*
X128914654Y-110341844D01*
X128833842Y-110368781D01*
X128753030Y-110449593D01*
X128726093Y-110530406D01*
X128726093Y-110584280D01*
X128753030Y-110665093D01*
X128968529Y-110880592D01*
X128672218Y-110099407D02*
X128672218Y-110045532D01*
X128645280Y-109964720D01*
X128510593Y-109830033D01*
X128429781Y-109803096D01*
X128375906Y-109803096D01*
X128295094Y-109830033D01*
X128241219Y-109883908D01*
X128187345Y-109991658D01*
X128187345Y-110638155D01*
X127837158Y-110287969D01*
X128133470Y-109560659D02*
X128133470Y-109506784D01*
X128106532Y-109425972D01*
X127971845Y-109291285D01*
X127891033Y-109264348D01*
X127837158Y-109264348D01*
X127756346Y-109291285D01*
X127702471Y-109345160D01*
X127648597Y-109452910D01*
X127648597Y-110099407D01*
X127298410Y-109749221D01*
X128766624Y-108623435D02*
X129224560Y-108542622D01*
X129089873Y-108946683D02*
X129655558Y-108380998D01*
X129440059Y-108165499D01*
X129359247Y-108138561D01*
X129305372Y-108138561D01*
X129224560Y-108165499D01*
X129143748Y-108246311D01*
X129116810Y-108327123D01*
X129116810Y-108380998D01*
X129143748Y-108461810D01*
X129359247Y-108677309D01*
X129089873Y-107815312D02*
X128631937Y-108273248D01*
X128551125Y-108300186D01*
X128497250Y-108300186D01*
X128416438Y-108273248D01*
X128308688Y-108165499D01*
X128281751Y-108084687D01*
X128281751Y-108030812D01*
X128308688Y-107950000D01*
X128766624Y-107492064D01*
X127931564Y-107788375D02*
X128497250Y-107222690D01*
X127608316Y-107465126D01*
X128174001Y-106899441D01*
X129507277Y-105800592D02*
X129588089Y-105827529D01*
X129668902Y-105908341D01*
X129722776Y-106016091D01*
X129722776Y-106123841D01*
X129695839Y-106204653D01*
X129615027Y-106339340D01*
X129534215Y-106420152D01*
X129399528Y-106500964D01*
X129318715Y-106527902D01*
X129210966Y-106527902D01*
X129103216Y-106474027D01*
X129049341Y-106420152D01*
X128995467Y-106312402D01*
X128995467Y-106258528D01*
X129184028Y-106069966D01*
X129291778Y-106177715D01*
X128699155Y-106069966D02*
X129264841Y-105504280D01*
X129049341Y-105288781D01*
X128968529Y-105261844D01*
X128914654Y-105261844D01*
X128833842Y-105288781D01*
X128753030Y-105369593D01*
X128726093Y-105450406D01*
X128726093Y-105504280D01*
X128753030Y-105585093D01*
X128968529Y-105800592D01*
X128672218Y-105019407D02*
X128672218Y-104965532D01*
X128645280Y-104884720D01*
X128510593Y-104750033D01*
X128429781Y-104723096D01*
X128375906Y-104723096D01*
X128295094Y-104750033D01*
X128241219Y-104803908D01*
X128187345Y-104911658D01*
X128187345Y-105558155D01*
X127837158Y-105207969D01*
X127917971Y-104157410D02*
X128025720Y-104265160D01*
X128052658Y-104345972D01*
X128052658Y-104399847D01*
X128025720Y-104534534D01*
X127944908Y-104669221D01*
X127729409Y-104884720D01*
X127648597Y-104911658D01*
X127594722Y-104911658D01*
X127513910Y-104884720D01*
X127406160Y-104776971D01*
X127379223Y-104696158D01*
X127379223Y-104642284D01*
X127406160Y-104561471D01*
X127540847Y-104426784D01*
X127621659Y-104399847D01*
X127675534Y-104399847D01*
X127756346Y-104426784D01*
X127864096Y-104534534D01*
X127891033Y-104615346D01*
X127891033Y-104669221D01*
X127864096Y-104750033D01*
X129507277Y-103270592D02*
X129588089Y-103297529D01*
X129668902Y-103378341D01*
X129722776Y-103486091D01*
X129722776Y-103593841D01*
X129695839Y-103674653D01*
X129615027Y-103809340D01*
X129534215Y-103890152D01*
X129399528Y-103970964D01*
X129318715Y-103997902D01*
X129210966Y-103997902D01*
X129103216Y-103944027D01*
X129049341Y-103890152D01*
X128995467Y-103782402D01*
X128995467Y-103728528D01*
X129184028Y-103539966D01*
X129291778Y-103647715D01*
X128699155Y-103539966D02*
X129264841Y-102974280D01*
X129049341Y-102758781D01*
X128968529Y-102731844D01*
X128914654Y-102731844D01*
X128833842Y-102758781D01*
X128753030Y-102839593D01*
X128726093Y-102920406D01*
X128726093Y-102974280D01*
X128753030Y-103055093D01*
X128968529Y-103270592D01*
X128672218Y-102489407D02*
X128672218Y-102435532D01*
X128645280Y-102354720D01*
X128510593Y-102220033D01*
X128429781Y-102193096D01*
X128375906Y-102193096D01*
X128295094Y-102220033D01*
X128241219Y-102273908D01*
X128187345Y-102381658D01*
X128187345Y-103028155D01*
X127837158Y-102677969D01*
X128214282Y-101923722D02*
X127837158Y-101546598D01*
X127513910Y-102354720D01*
X129507277Y-97926592D02*
X129588089Y-97953529D01*
X129668902Y-98034341D01*
X129722776Y-98142091D01*
X129722776Y-98249841D01*
X129695839Y-98330653D01*
X129615027Y-98465340D01*
X129534215Y-98546152D01*
X129399528Y-98626964D01*
X129318715Y-98653902D01*
X129210966Y-98653902D01*
X129103216Y-98600027D01*
X129049341Y-98546152D01*
X128995467Y-98438402D01*
X128995467Y-98384528D01*
X129184028Y-98195966D01*
X129291778Y-98303715D01*
X128699155Y-98195966D02*
X129264841Y-97630280D01*
X129049341Y-97414781D01*
X128968529Y-97387844D01*
X128914654Y-97387844D01*
X128833842Y-97414781D01*
X128753030Y-97495593D01*
X128726093Y-97576406D01*
X128726093Y-97630280D01*
X128753030Y-97711093D01*
X128968529Y-97926592D01*
X128672218Y-97145407D02*
X128672218Y-97091532D01*
X128645280Y-97010720D01*
X128510593Y-96876033D01*
X128429781Y-96849096D01*
X128375906Y-96849096D01*
X128295094Y-96876033D01*
X128241219Y-96929908D01*
X128187345Y-97037658D01*
X128187345Y-97684155D01*
X127837158Y-97333969D01*
X127837158Y-96687471D02*
X127917971Y-96714409D01*
X127971845Y-96714409D01*
X128052658Y-96687471D01*
X128079595Y-96660534D01*
X128106532Y-96579722D01*
X128106532Y-96525847D01*
X128079595Y-96445035D01*
X127971845Y-96337285D01*
X127891033Y-96310348D01*
X127837158Y-96310348D01*
X127756346Y-96337285D01*
X127729409Y-96364223D01*
X127702471Y-96445035D01*
X127702471Y-96498910D01*
X127729409Y-96579722D01*
X127837158Y-96687471D01*
X127864096Y-96768284D01*
X127864096Y-96822158D01*
X127837158Y-96902971D01*
X127729409Y-97010720D01*
X127648597Y-97037658D01*
X127594722Y-97037658D01*
X127513910Y-97010720D01*
X127406160Y-96902971D01*
X127379223Y-96822158D01*
X127379223Y-96768284D01*
X127406160Y-96687471D01*
X127513910Y-96579722D01*
X127594722Y-96552784D01*
X127648597Y-96552784D01*
X127729409Y-96579722D01*
X129450211Y-96213773D02*
X129180837Y-95944399D01*
X129342462Y-96429272D02*
X129719585Y-95675025D01*
X128965338Y-96052149D01*
X128776776Y-95863587D02*
X129342462Y-95297902D01*
X129207775Y-95163215D01*
X129100025Y-95109340D01*
X128992276Y-95109340D01*
X128911463Y-95136277D01*
X128776776Y-95217089D01*
X128695964Y-95297902D01*
X128615152Y-95432589D01*
X128588215Y-95513401D01*
X128588215Y-95621150D01*
X128642089Y-95728900D01*
X128776776Y-95863587D01*
X127941717Y-94920778D02*
X127941717Y-94974653D01*
X127995592Y-95082402D01*
X128049467Y-95136277D01*
X128157216Y-95190152D01*
X128264966Y-95190152D01*
X128345778Y-95163215D01*
X128480465Y-95082402D01*
X128561277Y-95001590D01*
X128642089Y-94866903D01*
X128669027Y-94786091D01*
X128669027Y-94678341D01*
X128615152Y-94570592D01*
X128561277Y-94516717D01*
X128453528Y-94462842D01*
X128399653Y-94462842D01*
X127726218Y-94920778D02*
X127295219Y-94489780D01*
X127860905Y-93816345D02*
X127106658Y-94193468D01*
X127483781Y-93439221D01*
X126406285Y-93493096D02*
X126864221Y-93412284D01*
X126729534Y-93816345D02*
X127295219Y-93250659D01*
X127079720Y-93035160D01*
X126998908Y-93008223D01*
X126945033Y-93008223D01*
X126864221Y-93035160D01*
X126783409Y-93115972D01*
X126756471Y-93196784D01*
X126756471Y-93250659D01*
X126783409Y-93331471D01*
X126998908Y-93546971D01*
X126460160Y-92954348D02*
X126271598Y-92765786D01*
X125894475Y-92981285D02*
X126163849Y-93250659D01*
X126729534Y-92684974D01*
X126460160Y-92415600D01*
X125759788Y-92253975D02*
X125948349Y-92442537D01*
X125652038Y-92738849D02*
X126217723Y-92173163D01*
X125948349Y-91903789D01*
X129715152Y-93170592D02*
X129364966Y-92820406D01*
X129338028Y-93224467D01*
X129257216Y-93143654D01*
X129176404Y-93116717D01*
X129122529Y-93116717D01*
X129041717Y-93143654D01*
X128907030Y-93278341D01*
X128880093Y-93359154D01*
X128880093Y-93413028D01*
X128907030Y-93493841D01*
X129068654Y-93655465D01*
X129149467Y-93682402D01*
X129203341Y-93682402D01*
X129203341Y-92658781D02*
X128449094Y-93035905D01*
X128826218Y-92281658D01*
X128691531Y-92146971D02*
X128341345Y-91796784D01*
X128314407Y-92200845D01*
X128233595Y-92120033D01*
X128152783Y-92093096D01*
X128098908Y-92093096D01*
X128018096Y-92120033D01*
X127883409Y-92254720D01*
X127856471Y-92335532D01*
X127856471Y-92389407D01*
X127883409Y-92470219D01*
X128045033Y-92631844D01*
X128125845Y-92658781D01*
X128179720Y-92658781D01*
X129682868Y-90638308D02*
X129332682Y-90288122D01*
X129305744Y-90692183D01*
X129224932Y-90611370D01*
X129144120Y-90584433D01*
X129090245Y-90584433D01*
X129009433Y-90611370D01*
X128874746Y-90746057D01*
X128847809Y-90826870D01*
X128847809Y-90880744D01*
X128874746Y-90961557D01*
X129036370Y-91123181D01*
X129117183Y-91150118D01*
X129171057Y-91150118D01*
X129171057Y-90126497D02*
X128416810Y-90503621D01*
X128793934Y-89749374D01*
X128659247Y-89614687D02*
X128309061Y-89264500D01*
X128282123Y-89668561D01*
X128201311Y-89587749D01*
X128120499Y-89560812D01*
X128066624Y-89560812D01*
X127985812Y-89587749D01*
X127851125Y-89722436D01*
X127824187Y-89803248D01*
X127824187Y-89857123D01*
X127851125Y-89937935D01*
X128012749Y-90099560D01*
X128093561Y-90126497D01*
X128147436Y-90126497D01*
X127581751Y-89776311D02*
X127150752Y-89345312D01*
X127366251Y-88860439D02*
X127177690Y-88671877D01*
X126800566Y-88887377D02*
X127069940Y-89156751D01*
X127635625Y-88591065D01*
X127366251Y-88321691D01*
X126558129Y-88644940D02*
X127123815Y-88079255D01*
X126234881Y-88321691D01*
X126800566Y-87756006D01*
X129684526Y-85749966D02*
X128930279Y-86127089D01*
X129307402Y-85372842D01*
X128607030Y-85749966D02*
X128499280Y-85696091D01*
X128364593Y-85561404D01*
X128337656Y-85480592D01*
X128337656Y-85426717D01*
X128364593Y-85345905D01*
X128418468Y-85292030D01*
X128499280Y-85265093D01*
X128553155Y-85265093D01*
X128633967Y-85292030D01*
X128768654Y-85372842D01*
X128849467Y-85399780D01*
X128903341Y-85399780D01*
X128984154Y-85372842D01*
X129038028Y-85318967D01*
X129064966Y-85238155D01*
X129064966Y-85184280D01*
X129038028Y-85103468D01*
X128903341Y-84968781D01*
X128795592Y-84914906D01*
X128176032Y-84834094D02*
X127906658Y-85103468D01*
X128660905Y-84726345D02*
X128176032Y-84834094D01*
X128283781Y-84349221D01*
X127583409Y-84726345D02*
X127475659Y-84672470D01*
X127340972Y-84537783D01*
X127314035Y-84456971D01*
X127314035Y-84403096D01*
X127340972Y-84322284D01*
X127394847Y-84268409D01*
X127475659Y-84241471D01*
X127529534Y-84241471D01*
X127610346Y-84268409D01*
X127745033Y-84349221D01*
X127825845Y-84376158D01*
X127879720Y-84376158D01*
X127960532Y-84349221D01*
X128014407Y-84295346D01*
X128041345Y-84214534D01*
X128041345Y-84160659D01*
X128014407Y-84079847D01*
X127879720Y-83945160D01*
X127771971Y-83891285D01*
X129651870Y-83207309D02*
X128897622Y-83584433D01*
X129274746Y-82830186D01*
X128628248Y-82722436D02*
X128520499Y-82668561D01*
X128466624Y-82668561D01*
X128385812Y-82695499D01*
X128305000Y-82776311D01*
X128278062Y-82857123D01*
X128278062Y-82910998D01*
X128305000Y-82991810D01*
X128520499Y-83207309D01*
X129086184Y-82641624D01*
X128897622Y-82453062D01*
X128816810Y-82426125D01*
X128762935Y-82426125D01*
X128682123Y-82453062D01*
X128628248Y-82506937D01*
X128601311Y-82587749D01*
X128601311Y-82641624D01*
X128628248Y-82722436D01*
X128816810Y-82910998D01*
X128520499Y-82075938D02*
X128062563Y-82533874D01*
X127981751Y-82560812D01*
X127927876Y-82560812D01*
X127847064Y-82533874D01*
X127739314Y-82426125D01*
X127712377Y-82345312D01*
X127712377Y-82291438D01*
X127739314Y-82210625D01*
X128197250Y-81752690D01*
X127416065Y-82049001D02*
X127308316Y-81995126D01*
X127173629Y-81860439D01*
X127146691Y-81779627D01*
X127146691Y-81725752D01*
X127173629Y-81644940D01*
X127227503Y-81591065D01*
X127308316Y-81564128D01*
X127362190Y-81564128D01*
X127443003Y-81591065D01*
X127577690Y-81671877D01*
X127658502Y-81698815D01*
X127712377Y-81698815D01*
X127793189Y-81671877D01*
X127847064Y-81618003D01*
X127874001Y-81537190D01*
X127874001Y-81483316D01*
X127847064Y-81402503D01*
X127712377Y-81267816D01*
X127604627Y-81213942D01*
X155118841Y-87778155D02*
X155199653Y-87805093D01*
X155280465Y-87885905D01*
X155334340Y-87993654D01*
X155334340Y-88101404D01*
X155307402Y-88182216D01*
X155226590Y-88316903D01*
X155145778Y-88397715D01*
X155011091Y-88478528D01*
X154930279Y-88505465D01*
X154822529Y-88505465D01*
X154714780Y-88451590D01*
X154660905Y-88397715D01*
X154607030Y-88289966D01*
X154607030Y-88236091D01*
X154795592Y-88047529D01*
X154903341Y-88155279D01*
X154310719Y-88047529D02*
X154876404Y-87481844D01*
X153987470Y-87724280D01*
X154553155Y-87158595D01*
X153718096Y-87454906D02*
X154283781Y-86889221D01*
X154149094Y-86754534D01*
X154041345Y-86700659D01*
X153933595Y-86700659D01*
X153852783Y-86727597D01*
X153718096Y-86808409D01*
X153637284Y-86889221D01*
X153556471Y-87023908D01*
X153529534Y-87104720D01*
X153529534Y-87212470D01*
X153583409Y-87320219D01*
X153718096Y-87454906D01*
X155118841Y-100478155D02*
X155199653Y-100505093D01*
X155280465Y-100585905D01*
X155334340Y-100693654D01*
X155334340Y-100801404D01*
X155307402Y-100882216D01*
X155226590Y-101016903D01*
X155145778Y-101097715D01*
X155011091Y-101178528D01*
X154930279Y-101205465D01*
X154822529Y-101205465D01*
X154714780Y-101151590D01*
X154660905Y-101097715D01*
X154607030Y-100989966D01*
X154607030Y-100936091D01*
X154795592Y-100747529D01*
X154903341Y-100855279D01*
X154310719Y-100747529D02*
X154876404Y-100181844D01*
X153987470Y-100424280D01*
X154553155Y-99858595D01*
X153718096Y-100154906D02*
X154283781Y-99589221D01*
X154149094Y-99454534D01*
X154041345Y-99400659D01*
X153933595Y-99400659D01*
X153852783Y-99427597D01*
X153718096Y-99508409D01*
X153637284Y-99589221D01*
X153556471Y-99723908D01*
X153529534Y-99804720D01*
X153529534Y-99912470D01*
X153583409Y-100020219D01*
X153718096Y-100154906D01*
X155118841Y-113178155D02*
X155199653Y-113205093D01*
X155280465Y-113285905D01*
X155334340Y-113393654D01*
X155334340Y-113501404D01*
X155307402Y-113582216D01*
X155226590Y-113716903D01*
X155145778Y-113797715D01*
X155011091Y-113878528D01*
X154930279Y-113905465D01*
X154822529Y-113905465D01*
X154714780Y-113851590D01*
X154660905Y-113797715D01*
X154607030Y-113689966D01*
X154607030Y-113636091D01*
X154795592Y-113447529D01*
X154903341Y-113555279D01*
X154310719Y-113447529D02*
X154876404Y-112881844D01*
X153987470Y-113124280D01*
X154553155Y-112558595D01*
X153718096Y-112854906D02*
X154283781Y-112289221D01*
X154149094Y-112154534D01*
X154041345Y-112100659D01*
X153933595Y-112100659D01*
X153852783Y-112127597D01*
X153718096Y-112208409D01*
X153637284Y-112289221D01*
X153556471Y-112423908D01*
X153529534Y-112504720D01*
X153529534Y-112612470D01*
X153583409Y-112720219D01*
X153718096Y-112854906D01*
X155118841Y-125878155D02*
X155199653Y-125905093D01*
X155280465Y-125985905D01*
X155334340Y-126093654D01*
X155334340Y-126201404D01*
X155307402Y-126282216D01*
X155226590Y-126416903D01*
X155145778Y-126497715D01*
X155011091Y-126578528D01*
X154930279Y-126605465D01*
X154822529Y-126605465D01*
X154714780Y-126551590D01*
X154660905Y-126497715D01*
X154607030Y-126389966D01*
X154607030Y-126336091D01*
X154795592Y-126147529D01*
X154903341Y-126255279D01*
X154310719Y-126147529D02*
X154876404Y-125581844D01*
X153987470Y-125824280D01*
X154553155Y-125258595D01*
X153718096Y-125554906D02*
X154283781Y-124989221D01*
X154149094Y-124854534D01*
X154041345Y-124800659D01*
X153933595Y-124800659D01*
X153852783Y-124827597D01*
X153718096Y-124908409D01*
X153637284Y-124989221D01*
X153556471Y-125123908D01*
X153529534Y-125204720D01*
X153529534Y-125312470D01*
X153583409Y-125420219D01*
X153718096Y-125554906D01*
X129518841Y-125878155D02*
X129599653Y-125905093D01*
X129680465Y-125985905D01*
X129734340Y-126093654D01*
X129734340Y-126201404D01*
X129707402Y-126282216D01*
X129626590Y-126416903D01*
X129545778Y-126497715D01*
X129411091Y-126578528D01*
X129330279Y-126605465D01*
X129222529Y-126605465D01*
X129114780Y-126551590D01*
X129060905Y-126497715D01*
X129007030Y-126389966D01*
X129007030Y-126336091D01*
X129195592Y-126147529D01*
X129303341Y-126255279D01*
X128710719Y-126147529D02*
X129276404Y-125581844D01*
X128387470Y-125824280D01*
X128953155Y-125258595D01*
X128118096Y-125554906D02*
X128683781Y-124989221D01*
X128549094Y-124854534D01*
X128441345Y-124800659D01*
X128333595Y-124800659D01*
X128252783Y-124827597D01*
X128118096Y-124908409D01*
X128037284Y-124989221D01*
X127956471Y-125123908D01*
X127929534Y-125204720D01*
X127929534Y-125312470D01*
X127983409Y-125420219D01*
X128118096Y-125554906D01*
X129518841Y-113178155D02*
X129599653Y-113205093D01*
X129680465Y-113285905D01*
X129734340Y-113393654D01*
X129734340Y-113501404D01*
X129707402Y-113582216D01*
X129626590Y-113716903D01*
X129545778Y-113797715D01*
X129411091Y-113878528D01*
X129330279Y-113905465D01*
X129222529Y-113905465D01*
X129114780Y-113851590D01*
X129060905Y-113797715D01*
X129007030Y-113689966D01*
X129007030Y-113636091D01*
X129195592Y-113447529D01*
X129303341Y-113555279D01*
X128710719Y-113447529D02*
X129276404Y-112881844D01*
X128387470Y-113124280D01*
X128953155Y-112558595D01*
X128118096Y-112854906D02*
X128683781Y-112289221D01*
X128549094Y-112154534D01*
X128441345Y-112100659D01*
X128333595Y-112100659D01*
X128252783Y-112127597D01*
X128118096Y-112208409D01*
X128037284Y-112289221D01*
X127956471Y-112423908D01*
X127929534Y-112504720D01*
X127929534Y-112612470D01*
X127983409Y-112720219D01*
X128118096Y-112854906D01*
X129518841Y-87778155D02*
X129599653Y-87805093D01*
X129680465Y-87885905D01*
X129734340Y-87993654D01*
X129734340Y-88101404D01*
X129707402Y-88182216D01*
X129626590Y-88316903D01*
X129545778Y-88397715D01*
X129411091Y-88478528D01*
X129330279Y-88505465D01*
X129222529Y-88505465D01*
X129114780Y-88451590D01*
X129060905Y-88397715D01*
X129007030Y-88289966D01*
X129007030Y-88236091D01*
X129195592Y-88047529D01*
X129303341Y-88155279D01*
X128710719Y-88047529D02*
X129276404Y-87481844D01*
X128387470Y-87724280D01*
X128953155Y-87158595D01*
X128118096Y-87454906D02*
X128683781Y-86889221D01*
X128549094Y-86754534D01*
X128441345Y-86700659D01*
X128333595Y-86700659D01*
X128252783Y-86727597D01*
X128118096Y-86808409D01*
X128037284Y-86889221D01*
X127956471Y-87023908D01*
X127929534Y-87104720D01*
X127929534Y-87212470D01*
X127983409Y-87320219D01*
X128118096Y-87454906D01*
X129453402Y-101420964D02*
X129184028Y-101151590D01*
X129345653Y-101636463D02*
X129722776Y-100882216D01*
X128968529Y-101259340D01*
X129022404Y-100235719D02*
X129103216Y-100262656D01*
X129184028Y-100343468D01*
X129237903Y-100451218D01*
X129237903Y-100558967D01*
X129210966Y-100639780D01*
X129130154Y-100774467D01*
X129049341Y-100855279D01*
X128914654Y-100936091D01*
X128833842Y-100963028D01*
X128726093Y-100963028D01*
X128618343Y-100909154D01*
X128564468Y-100855279D01*
X128510593Y-100747529D01*
X128510593Y-100693654D01*
X128699155Y-100505093D01*
X128806905Y-100612842D01*
X128214282Y-100505093D02*
X128779967Y-99939407D01*
X127891033Y-100181844D01*
X128456719Y-99616158D01*
X127621659Y-99912470D02*
X128187345Y-99346784D01*
X128052658Y-99212097D01*
X127944908Y-99158223D01*
X127837158Y-99158223D01*
X127756346Y-99185160D01*
X127621659Y-99265972D01*
X127540847Y-99346784D01*
X127460035Y-99481471D01*
X127433097Y-99562284D01*
X127433097Y-99670033D01*
X127486972Y-99777783D01*
X127621659Y-99912470D01*
X149114523Y-133203809D02*
X149000238Y-133241904D01*
X148809761Y-133241904D01*
X148733571Y-133203809D01*
X148695476Y-133165714D01*
X148657380Y-133089523D01*
X148657380Y-133013333D01*
X148695476Y-132937142D01*
X148733571Y-132899047D01*
X148809761Y-132860952D01*
X148962142Y-132822857D01*
X149038333Y-132784761D01*
X149076428Y-132746666D01*
X149114523Y-132670476D01*
X149114523Y-132594285D01*
X149076428Y-132518095D01*
X149038333Y-132480000D01*
X148962142Y-132441904D01*
X148771666Y-132441904D01*
X148657380Y-132480000D01*
X148390714Y-132441904D02*
X148200238Y-133241904D01*
X148047857Y-132670476D01*
X147895476Y-133241904D01*
X147705000Y-132441904D01*
X146943095Y-133165714D02*
X146981190Y-133203809D01*
X147095476Y-133241904D01*
X147171666Y-133241904D01*
X147285952Y-133203809D01*
X147362142Y-133127619D01*
X147400238Y-133051428D01*
X147438333Y-132899047D01*
X147438333Y-132784761D01*
X147400238Y-132632380D01*
X147362142Y-132556190D01*
X147285952Y-132480000D01*
X147171666Y-132441904D01*
X147095476Y-132441904D01*
X146981190Y-132480000D01*
X146943095Y-132518095D01*
X146219285Y-133241904D02*
X146600238Y-133241904D01*
X146600238Y-132441904D01*
X145952619Y-133241904D02*
X145952619Y-132441904D01*
X145495476Y-133241904D02*
X145838333Y-132784761D01*
X145495476Y-132441904D02*
X145952619Y-132899047D01*
X137700238Y-133203809D02*
X137585952Y-133241904D01*
X137395476Y-133241904D01*
X137319285Y-133203809D01*
X137281190Y-133165714D01*
X137243095Y-133089523D01*
X137243095Y-133013333D01*
X137281190Y-132937142D01*
X137319285Y-132899047D01*
X137395476Y-132860952D01*
X137547857Y-132822857D01*
X137624047Y-132784761D01*
X137662142Y-132746666D01*
X137700238Y-132670476D01*
X137700238Y-132594285D01*
X137662142Y-132518095D01*
X137624047Y-132480000D01*
X137547857Y-132441904D01*
X137357380Y-132441904D01*
X137243095Y-132480000D01*
X136976428Y-132441904D02*
X136785952Y-133241904D01*
X136633571Y-132670476D01*
X136481190Y-133241904D01*
X136290714Y-132441904D01*
X135985952Y-133241904D02*
X135985952Y-132441904D01*
X135795476Y-132441904D01*
X135681190Y-132480000D01*
X135605000Y-132556190D01*
X135566904Y-132632380D01*
X135528809Y-132784761D01*
X135528809Y-132899047D01*
X135566904Y-133051428D01*
X135605000Y-133127619D01*
X135681190Y-133203809D01*
X135795476Y-133241904D01*
X135985952Y-133241904D01*
X135185952Y-133241904D02*
X135185952Y-132441904D01*
X134652619Y-132441904D02*
X134500238Y-132441904D01*
X134424047Y-132480000D01*
X134347857Y-132556190D01*
X134309761Y-132708571D01*
X134309761Y-132975238D01*
X134347857Y-133127619D01*
X134424047Y-133203809D01*
X134500238Y-133241904D01*
X134652619Y-133241904D01*
X134728809Y-133203809D01*
X134805000Y-133127619D01*
X134843095Y-132975238D01*
X134843095Y-132708571D01*
X134805000Y-132556190D01*
X134728809Y-132480000D01*
X134652619Y-132441904D01*
X170354523Y-78827380D02*
X170354523Y-79541666D01*
X170402142Y-79684523D01*
X170497380Y-79779761D01*
X170640238Y-79827380D01*
X170735476Y-79827380D01*
X169354523Y-79827380D02*
X169925952Y-79827380D01*
X169640238Y-79827380D02*
X169640238Y-78827380D01*
X169735476Y-78970238D01*
X169830714Y-79065476D01*
X169925952Y-79113095D01*
X168402142Y-79827380D02*
X168973571Y-79827380D01*
X168687857Y-79827380D02*
X168687857Y-78827380D01*
X168783095Y-78970238D01*
X168878333Y-79065476D01*
X168973571Y-79113095D01*
M02*
