M48
; DRILL file {KiCad 5.1.5+dfsg1-2build2} date 2021年07月30日 22時35分23秒
; FORMAT={-:-/ absolute / inch / decimal}
; #@! TF.CreationDate,2021-07-30T22:35:23+09:00
; #@! TF.GenerationSoftware,Kicad,Pcbnew,5.1.5+dfsg1-2build2
FMAT,2
INCH
T1C0.0157
T2C0.0236
T3C0.0295
T4C0.0394
T5C0.0402
T6C0.0591
T7C0.0472
T8C0.0669
T9C0.1575
%
G90
G05
T1
X4.675Y-3.7
X5.3Y-5.4358
X5.325Y-5.4
X5.3535Y-5.3715
X5.3821Y-5.325
X5.425Y-3.85
X5.475Y-4.675
X5.6923Y-5.4577
X5.8Y-4.65
X5.825Y-6.025
X5.85Y-4.55
X6.125Y-4.1
X6.175Y-4.375
X6.225Y-3.625
X6.35Y-4.4465
X6.525Y-3.6514
X6.725Y-4.125
T3
X4.625Y-4.0
X5.025Y-4.0
X6.875Y-4.0
X7.275Y-4.0
X5.375Y-4.0
X5.775Y-4.0
X4.625Y-3.25
X5.025Y-3.25
X4.625Y-4.75
X5.025Y-4.75
X5.375Y-4.75
X5.775Y-4.75
X6.125Y-4.75
X6.525Y-4.75
X6.875Y-3.25
X7.275Y-3.25
X4.625Y-5.5
X5.025Y-5.5
X5.375Y-3.25
X5.775Y-3.25
X6.875Y-5.5
X7.275Y-5.5
X6.875Y-4.75
X7.275Y-4.75
X5.35Y-5.5
X5.75Y-5.5
X6.125Y-3.25
X6.525Y-3.25
X6.125Y-5.5
X6.525Y-5.5
X6.125Y-4.0
X6.525Y-4.0
T4
X4.5Y-5.6
X4.5Y-5.7
X4.5Y-5.8
X4.5Y-5.9
X7.4Y-5.075
X7.4Y-5.175
X7.4Y-5.275
X7.4Y-5.375
X7.4Y-5.6
X7.4Y-5.7
X7.4Y-5.8
X7.4Y-5.9
X7.4Y-4.55
X7.4Y-4.65
X7.4Y-4.75
X7.4Y-4.85
X4.5Y-4.55
X4.5Y-4.65
X4.5Y-4.75
X4.5Y-4.85
X4.5Y-3.5
X4.5Y-3.6
X4.5Y-3.7
X4.5Y-3.8
X7.4Y-3.5
X7.4Y-3.6
X7.4Y-3.7
X7.4Y-3.8
X4.5Y-4.025
X4.5Y-4.125
X4.5Y-4.225
X4.5Y-4.325
X7.4Y-4.025
X7.4Y-4.125
X7.4Y-4.225
X7.4Y-4.325
X4.5Y-5.075
X4.5Y-5.175
X4.5Y-5.275
X4.5Y-5.375
T5
X5.225Y-3.25
X5.225Y-3.35
X5.225Y-3.45
X5.225Y-3.55
X5.225Y-3.65
X5.225Y-3.75
X5.225Y-3.85
X5.225Y-3.95
X5.225Y-4.05
X5.225Y-4.15
X5.225Y-4.25
X5.225Y-4.35
X5.225Y-4.45
X5.225Y-4.55
X5.225Y-4.65
X5.225Y-4.75
X5.225Y-4.85
X5.225Y-4.95
X5.225Y-5.05
X5.225Y-5.15
X5.925Y-3.25
X5.925Y-3.35
X5.925Y-3.45
X5.925Y-3.55
X5.925Y-3.65
X5.925Y-3.75
X5.925Y-3.85
X5.925Y-3.95
X5.925Y-4.05
X5.925Y-4.15
X5.925Y-4.25
X5.925Y-4.35
X5.925Y-4.45
X5.925Y-4.55
X5.925Y-4.65
X5.925Y-4.75
X5.925Y-4.85
X5.925Y-4.95
X5.925Y-5.05
X5.925Y-5.15
T6
X6.925Y-4.975
X7.175Y-4.875
X6.175Y-5.725
X6.425Y-5.625
X6.925Y-5.725
X7.175Y-5.625
X6.175Y-4.975
X6.425Y-4.875
X5.425Y-5.725
X5.675Y-5.625
X5.425Y-4.225
X5.675Y-4.125
X4.675Y-3.475
X4.925Y-3.375
X6.925Y-3.475
X7.175Y-3.375
X5.425Y-4.975
X5.675Y-4.875
X6.925Y-4.225
X7.175Y-4.125
X4.675Y-4.225
X4.925Y-4.125
X5.425Y-3.475
X5.675Y-3.375
X6.175Y-3.475
X6.425Y-3.375
X4.675Y-5.725
X4.925Y-5.625
X6.175Y-4.225
X6.425Y-4.125
X4.675Y-4.975
X4.925Y-4.875
T7
X6.6844Y-3.4506
X6.6844Y-3.7262
T8
X6.875Y-4.325
X7.275Y-4.325
X4.625Y-4.325
X5.025Y-4.325
X5.375Y-3.575
X5.775Y-3.575
X6.125Y-3.575
X6.525Y-3.575
X4.625Y-5.825
X5.025Y-5.825
X6.125Y-4.325
X6.525Y-4.325
X4.625Y-5.075
X5.025Y-5.075
X6.875Y-5.075
X7.275Y-5.075
X6.125Y-5.825
X6.525Y-5.825
X6.875Y-5.825
X7.275Y-5.825
X6.125Y-5.075
X6.525Y-5.075
X5.375Y-5.825
X5.775Y-5.825
X5.375Y-4.325
X5.775Y-4.325
X4.625Y-3.575
X5.025Y-3.575
X6.875Y-3.575
X7.275Y-3.575
X5.375Y-5.075
X5.775Y-5.075
T9
X4.825Y-3.575
X7.075Y-3.575
X5.575Y-5.075
X7.075Y-4.325
X4.825Y-4.325
X5.575Y-3.575
X6.325Y-3.575
X4.825Y-5.825
X6.325Y-4.325
X4.825Y-5.075
X7.075Y-5.075
X6.325Y-5.825
X7.075Y-5.825
X6.325Y-5.075
X5.575Y-5.825
X5.575Y-4.325
T2
G00X6.5585Y-3.3876
M15
G01X6.5585Y-3.4112
M16
G05
G00X6.5978Y-3.7222
M15
G01X6.5978Y-3.7459
M16
G05
G00X6.775Y-3.3876
M15
G01X6.775Y-3.4112
M16
G05
G00X6.775Y-3.5057
M15
G01X6.775Y-3.5293
M16
G05
G00X6.775Y-3.6632
M15
G01X6.775Y-3.6868
M16
G05
T0
M30
